<svg width="1067" height="400" viewBox="0 0 1067 400" fill="none" xmlns="http://www.w3.org/2000/svg">
<g clip-path="url(#clip0_52_335)">
<rect x="0.286865" width="1066.67" height="400" fill="#0E1027"/>
<g clip-path="url(#clip1_52_335)">
<mask id="mask0_52_335" style="mask-type:alpha" maskUnits="userSpaceOnUse" x="0" y="0" width="1069" height="478">
<path d="M1069 0H0V477.919H1069V0Z" fill="url(#paint0_radial_52_335)" fill-opacity="0.7"/>
</mask>
<g mask="url(#mask0_52_335)">
<g opacity="0.14">
<path d="M5.86866 0.6763H-23.4747V29.9827H5.86866V0.6763Z" stroke="#E2E7F0" stroke-width="1.5"/>
<path d="M35.212 0.6763H5.86866V29.9827H35.212V0.6763Z" stroke="#E2E7F0" stroke-width="1.5"/>
<path d="M64.5553 0.6763H35.212V29.9827H64.5553V0.6763Z" fill="#E2E7F0" fill-opacity="0.3" stroke="#E2E7F0" stroke-width="1.5"/>
<path d="M93.8986 0.6763H64.5553V29.9827H93.8986V0.6763Z" stroke="#E2E7F0" stroke-width="1.5"/>
<path d="M123.242 0.6763H93.8986V29.9827H123.242V0.6763Z" stroke="#E2E7F0" stroke-width="1.5"/>
<path d="M152.585 0.6763H123.242V29.9827H152.585V0.6763Z" stroke="#E2E7F0" stroke-width="1.5"/>
<path d="M181.929 0.6763H152.585V29.9827H181.929V0.6763Z" stroke="#E2E7F0" stroke-width="1.5"/>
<path d="M211.272 0.6763H181.929V29.9827H211.272V0.6763Z" stroke="#E2E7F0" stroke-width="1.5"/>
<path d="M240.615 0.6763H211.272V29.9827H240.615V0.6763Z" fill="#E2E7F0" fill-opacity="0.3" stroke="#E2E7F0" stroke-width="1.5"/>
<path d="M269.959 0.6763H240.615V29.9827H269.959V0.6763Z" stroke="#E2E7F0" stroke-width="1.5"/>
<path d="M299.302 0.6763H269.959V29.9827H299.302V0.6763Z" stroke="#E2E7F0" stroke-width="1.5"/>
<path d="M328.645 0.6763H299.302V29.9827H328.645V0.6763Z" stroke="#E2E7F0" stroke-width="1.5"/>
<path d="M357.989 0.6763H328.645V29.9827H357.989V0.6763Z" stroke="#E2E7F0" stroke-width="1.5"/>
<path d="M387.332 0.6763H357.989V29.9827H387.332V0.6763Z" stroke="#E2E7F0" stroke-width="1.5"/>
<path d="M416.675 0.6763H387.332V29.9827H416.675V0.6763Z" stroke="#E2E7F0" stroke-width="1.5"/>
<path d="M446.019 0.6763H416.675V29.9827H446.019V0.6763Z" stroke="#E2E7F0" stroke-width="1.5"/>
<path d="M475.362 0.6763H446.019V29.9827H475.362V0.6763Z" stroke="#E2E7F0" stroke-width="1.5"/>
<path d="M504.705 0.6763H475.362V29.9827H504.705V0.6763Z" stroke="#E2E7F0" stroke-width="1.5"/>
<path d="M534.049 0.6763H504.705V29.9827H534.049V0.6763Z" stroke="#E2E7F0" stroke-width="1.5"/>
<path d="M563.392 0.6763H534.049V29.9827H563.392V0.6763Z" stroke="#E2E7F0" stroke-width="1.5"/>
<path d="M592.735 0.6763H563.392V29.9827H592.735V0.6763Z" stroke="#E2E7F0" stroke-width="1.5"/>
<path d="M622.078 0.6763H592.735V29.9827H622.078V0.6763Z" stroke="#E2E7F0" stroke-width="1.5"/>
<path d="M651.422 0.6763H622.079V29.9827H651.422V0.6763Z" stroke="#E2E7F0" stroke-width="1.5"/>
<path d="M680.765 0.6763H651.422V29.9827H680.765V0.6763Z" stroke="#E2E7F0" stroke-width="1.5"/>
<path d="M710.109 0.6763H680.765V29.9827H710.109V0.6763Z" stroke="#E2E7F0" stroke-width="1.5"/>
<path d="M739.452 0.6763H710.109V29.9827H739.452V0.6763Z" fill="#E2E7F0" fill-opacity="0.3" stroke="#E2E7F0" stroke-width="1.5"/>
<path d="M768.795 0.6763H739.452V29.9827H768.795V0.6763Z" stroke="#E2E7F0" stroke-width="1.5"/>
<path d="M798.138 0.6763H768.795V29.9827H798.138V0.6763Z" stroke="#E2E7F0" stroke-width="1.5"/>
<path d="M827.482 0.6763H798.139V29.9827H827.482V0.6763Z" fill="#E2E7F0" fill-opacity="0.3" stroke="#E2E7F0" stroke-width="1.5"/>
<path d="M856.825 0.6763H827.482V29.9827H856.825V0.6763Z" stroke="#E2E7F0" stroke-width="1.5"/>
<path d="M886.168 0.6763H856.825V29.9827H886.168V0.6763Z" stroke="#E2E7F0" stroke-width="1.5"/>
<path d="M915.512 0.6763H886.168V29.9827H915.512V0.6763Z" stroke="#E2E7F0" stroke-width="1.5"/>
<path d="M944.855 0.6763H915.512V29.9827H944.855V0.6763Z" stroke="#E2E7F0" stroke-width="1.5"/>
<path d="M974.199 0.6763H944.855V29.9827H974.199V0.6763Z" stroke="#E2E7F0" stroke-width="1.5"/>
<path d="M1003.54 0.6763H974.198V29.9827H1003.54V0.6763Z" stroke="#E2E7F0" stroke-width="1.5"/>
<path d="M1032.89 0.6763H1003.54V29.9827H1032.89V0.6763Z" stroke="#E2E7F0" stroke-width="1.5"/>
<path d="M1062.23 0.6763H1032.89V29.9827H1062.23V0.6763Z" stroke="#E2E7F0" stroke-width="1.5"/>
<path d="M1091.57 0.6763H1062.23V29.9827H1091.57V0.6763Z" fill="#E2E7F0" fill-opacity="0.3" stroke="#E2E7F0" stroke-width="1.5"/>
<path d="M5.86866 29.9827H-23.4747V59.289H5.86866V29.9827Z" stroke="#E2E7F0" stroke-width="1.5"/>
<path d="M35.212 29.9827H5.86866V59.289H35.212V29.9827Z" stroke="#E2E7F0" stroke-width="1.5"/>
<path d="M64.5553 29.9827H35.212V59.289H64.5553V29.9827Z" stroke="#E2E7F0" stroke-width="1.5"/>
<path d="M93.8986 29.9827H64.5553V59.289H93.8986V29.9827Z" stroke="#E2E7F0" stroke-width="1.5"/>
<path d="M123.242 29.9827H93.8986V59.289H123.242V29.9827Z" stroke="#E2E7F0" stroke-width="1.5"/>
<path d="M152.585 29.9827H123.242V59.289H152.585V29.9827Z" stroke="#E2E7F0" stroke-width="1.5"/>
<path d="M181.929 29.9827H152.585V59.289H181.929V29.9827Z" fill="#E2E7F0" fill-opacity="0.3" stroke="#E2E7F0" stroke-width="1.5"/>
<path d="M211.272 29.9827H181.929V59.289H211.272V29.9827Z" stroke="#E2E7F0" stroke-width="1.5"/>
<path d="M240.615 29.9827H211.272V59.289H240.615V29.9827Z" stroke="#E2E7F0" stroke-width="1.5"/>
<path d="M269.959 29.9827H240.615V59.289H269.959V29.9827Z" stroke="#E2E7F0" stroke-width="1.5"/>
<path d="M299.302 29.9827H269.959V59.289H299.302V29.9827Z" stroke="#E2E7F0" stroke-width="1.5"/>
<path d="M328.645 29.9827H299.302V59.289H328.645V29.9827Z" stroke="#E2E7F0" stroke-width="1.5"/>
<path d="M357.989 29.9827H328.645V59.289H357.989V29.9827Z" stroke="#E2E7F0" stroke-width="1.5"/>
<path d="M387.332 29.9827H357.989V59.289H387.332V29.9827Z" stroke="#E2E7F0" stroke-width="1.5"/>
<path d="M416.675 29.9827H387.332V59.289H416.675V29.9827Z" stroke="#E2E7F0" stroke-width="1.5"/>
<path d="M446.019 29.9827H416.675V59.289H446.019V29.9827Z" stroke="#E2E7F0" stroke-width="1.5"/>
<path d="M475.362 29.9827H446.019V59.289H475.362V29.9827Z" stroke="#E2E7F0" stroke-width="1.5"/>
<path d="M504.705 29.9827H475.362V59.289H504.705V29.9827Z" stroke="#E2E7F0" stroke-width="1.5"/>
<path d="M534.049 29.9827H504.705V59.289H534.049V29.9827Z" stroke="#E2E7F0" stroke-width="1.5"/>
<path d="M563.392 29.9827H534.049V59.289H563.392V29.9827Z" stroke="#E2E7F0" stroke-width="1.5"/>
<path d="M592.735 29.9827H563.392V59.289H592.735V29.9827Z" stroke="#E2E7F0" stroke-width="1.5"/>
<path d="M622.078 29.9827H592.735V59.289H622.078V29.9827Z" stroke="#E2E7F0" stroke-width="1.5"/>
<path d="M651.422 29.9827H622.079V59.289H651.422V29.9827Z" stroke="#E2E7F0" stroke-width="1.5"/>
<path d="M680.765 29.9827H651.422V59.289H680.765V29.9827Z" stroke="#E2E7F0" stroke-width="1.5"/>
<path d="M710.109 29.9827H680.765V59.289H710.109V29.9827Z" stroke="#E2E7F0" stroke-width="1.5"/>
<path d="M739.452 29.9827H710.109V59.289H739.452V29.9827Z" stroke="#E2E7F0" stroke-width="1.5"/>
<path d="M768.795 29.9827H739.452V59.289H768.795V29.9827Z" stroke="#E2E7F0" stroke-width="1.5"/>
<path d="M798.138 29.9827H768.795V59.289H798.138V29.9827Z" stroke="#E2E7F0" stroke-width="1.5"/>
<path d="M827.482 29.9827H798.139V59.289H827.482V29.9827Z" stroke="#E2E7F0" stroke-width="1.5"/>
<path d="M856.825 29.9827H827.482V59.289H856.825V29.9827Z" stroke="#E2E7F0" stroke-width="1.5"/>
<path d="M886.168 29.9827H856.825V59.289H886.168V29.9827Z" stroke="#E2E7F0" stroke-width="1.5"/>
<path d="M915.512 29.9827H886.168V59.289H915.512V29.9827Z" stroke="#E2E7F0" stroke-width="1.5"/>
<path d="M944.855 29.9827H915.512V59.289H944.855V29.9827Z" fill="#E2E7F0" fill-opacity="0.3" stroke="#E2E7F0" stroke-width="1.5"/>
<path d="M974.199 29.9827H944.855V59.289H974.199V29.9827Z" stroke="#E2E7F0" stroke-width="1.5"/>
<path d="M1003.54 29.9827H974.198V59.289H1003.54V29.9827Z" stroke="#E2E7F0" stroke-width="1.5"/>
<path d="M1032.89 29.9827H1003.54V59.289H1032.89V29.9827Z" stroke="#E2E7F0" stroke-width="1.5"/>
<path d="M1062.23 29.9827H1032.89V59.289H1062.23V29.9827Z" stroke="#E2E7F0" stroke-width="1.5"/>
<path d="M1091.57 29.9827H1062.23V59.289H1091.57V29.9827Z" stroke="#E2E7F0" stroke-width="1.5"/>
<path d="M5.86866 59.289H-23.4747V88.5954H5.86866V59.289Z" stroke="#E2E7F0" stroke-width="1.5"/>
<path d="M35.212 59.289H5.86866V88.5954H35.212V59.289Z" stroke="#E2E7F0" stroke-width="1.5"/>
<path d="M64.5553 59.289H35.212V88.5954H64.5553V59.289Z" stroke="#E2E7F0" stroke-width="1.5"/>
<path d="M93.8986 59.289H64.5553V88.5954H93.8986V59.289Z" stroke="#E2E7F0" stroke-width="1.5"/>
<path d="M123.242 59.289H93.8986V88.5954H123.242V59.289Z" stroke="#E2E7F0" stroke-width="1.5"/>
<path d="M152.585 59.289H123.242V88.5954H152.585V59.289Z" stroke="#E2E7F0" stroke-width="1.5"/>
<path d="M181.929 59.289H152.585V88.5954H181.929V59.289Z" stroke="#E2E7F0" stroke-width="1.5"/>
<path d="M211.272 59.289H181.929V88.5954H211.272V59.289Z" stroke="#E2E7F0" stroke-width="1.5"/>
<path d="M240.615 59.289H211.272V88.5954H240.615V59.289Z" stroke="#E2E7F0" stroke-width="1.5"/>
<path d="M269.959 59.289H240.615V88.5954H269.959V59.289Z" stroke="#E2E7F0" stroke-width="1.5"/>
<path d="M299.302 59.289H269.959V88.5954H299.302V59.289Z" stroke="#E2E7F0" stroke-width="1.5"/>
<path d="M328.645 59.289H299.302V88.5954H328.645V59.289Z" stroke="#E2E7F0" stroke-width="1.5"/>
<path d="M357.989 59.289H328.645V88.5954H357.989V59.289Z" stroke="#E2E7F0" stroke-width="1.5"/>
<path d="M387.332 59.289H357.989V88.5954H387.332V59.289Z" stroke="#E2E7F0" stroke-width="1.5"/>
<path d="M416.675 59.289H387.332V88.5954H416.675V59.289Z" stroke="#E2E7F0" stroke-width="1.5"/>
<path d="M446.019 59.289H416.675V88.5954H446.019V59.289Z" stroke="#E2E7F0" stroke-width="1.5"/>
<path d="M475.362 59.289H446.019V88.5954H475.362V59.289Z" stroke="#E2E7F0" stroke-width="1.5"/>
<path d="M504.705 59.289H475.362V88.5954H504.705V59.289Z" stroke="#E2E7F0" stroke-width="1.5"/>
<path d="M534.049 59.289H504.705V88.5954H534.049V59.289Z" stroke="#E2E7F0" stroke-width="1.5"/>
<path d="M563.392 59.289H534.049V88.5954H563.392V59.289Z" stroke="#E2E7F0" stroke-width="1.5"/>
<path d="M592.735 59.289H563.392V88.5954H592.735V59.289Z" stroke="#E2E7F0" stroke-width="1.5"/>
<path d="M622.078 59.289H592.735V88.5954H622.078V59.289Z" stroke="#E2E7F0" stroke-width="1.5"/>
<path d="M651.422 59.289H622.079V88.5954H651.422V59.289Z" stroke="#E2E7F0" stroke-width="1.5"/>
<path d="M680.765 59.289H651.422V88.5954H680.765V59.289Z" stroke="#E2E7F0" stroke-width="1.5"/>
<path d="M710.109 59.289H680.765V88.5954H710.109V59.289Z" stroke="#E2E7F0" stroke-width="1.5"/>
<path d="M739.452 59.289H710.109V88.5954H739.452V59.289Z" stroke="#E2E7F0" stroke-width="1.5"/>
<path d="M768.795 59.289H739.452V88.5954H768.795V59.289Z" stroke="#E2E7F0" stroke-width="1.5"/>
<path d="M798.138 59.289H768.795V88.5954H798.138V59.289Z" stroke="#E2E7F0" stroke-width="1.5"/>
<path d="M827.482 59.289H798.139V88.5954H827.482V59.289Z" stroke="#E2E7F0" stroke-width="1.5"/>
<path d="M856.825 59.289H827.482V88.5954H856.825V59.289Z" stroke="#E2E7F0" stroke-width="1.5"/>
<path d="M886.168 59.289H856.825V88.5954H886.168V59.289Z" stroke="#E2E7F0" stroke-width="1.5"/>
<path d="M915.512 59.289H886.168V88.5954H915.512V59.289Z" stroke="#E2E7F0" stroke-width="1.5"/>
<path d="M944.855 59.289H915.512V88.5954H944.855V59.289Z" stroke="#E2E7F0" stroke-width="1.5"/>
<path d="M974.199 59.289H944.855V88.5954H974.199V59.289Z" stroke="#E2E7F0" stroke-width="1.5"/>
<path d="M1003.54 59.289H974.198V88.5954H1003.54V59.289Z" stroke="#E2E7F0" stroke-width="1.5"/>
<path d="M1032.89 59.289H1003.54V88.5954H1032.89V59.289Z" stroke="#E2E7F0" stroke-width="1.5"/>
<path d="M1062.23 59.289H1032.89V88.5954H1062.23V59.289Z" stroke="#E2E7F0" stroke-width="1.5"/>
<path d="M1091.57 59.289H1062.23V88.5954H1091.57V59.289Z" stroke="#E2E7F0" stroke-width="1.5"/>
<path d="M5.86866 88.5954H-23.4747V117.902H5.86866V88.5954Z" stroke="#E2E7F0" stroke-width="1.5"/>
<path d="M35.212 88.5954H5.86866V117.902H35.212V88.5954Z" stroke="#E2E7F0" stroke-width="1.5"/>
<path d="M64.5553 88.5954H35.212V117.902H64.5553V88.5954Z" stroke="#E2E7F0" stroke-width="1.5"/>
<path d="M93.8986 88.5954H64.5553V117.902H93.8986V88.5954Z" stroke="#E2E7F0" stroke-width="1.5"/>
<path d="M123.242 88.5954H93.8986V117.902H123.242V88.5954Z" stroke="#E2E7F0" stroke-width="1.5"/>
<path d="M152.585 88.5954H123.242V117.902H152.585V88.5954Z" stroke="#E2E7F0" stroke-width="1.5"/>
<path d="M181.929 88.5954H152.585V117.902H181.929V88.5954Z" stroke="#E2E7F0" stroke-width="1.5"/>
<path d="M211.272 88.5954H181.929V117.902H211.272V88.5954Z" stroke="#E2E7F0" stroke-width="1.5"/>
<path d="M240.615 88.5954H211.272V117.902H240.615V88.5954Z" stroke="#E2E7F0" stroke-width="1.5"/>
<path d="M269.959 88.5954H240.615V117.902H269.959V88.5954Z" stroke="#E2E7F0" stroke-width="1.5"/>
<path d="M299.302 88.5954H269.959V117.902H299.302V88.5954Z" stroke="#E2E7F0" stroke-width="1.5"/>
<path d="M328.645 88.5954H299.302V117.902H328.645V88.5954Z" stroke="#E2E7F0" stroke-width="1.5"/>
<path d="M357.989 88.5954H328.645V117.902H357.989V88.5954Z" stroke="#E2E7F0" stroke-width="1.5"/>
<path d="M387.332 88.5954H357.989V117.902H387.332V88.5954Z" stroke="#E2E7F0" stroke-width="1.5"/>
<path d="M416.675 88.5954H387.332V117.902H416.675V88.5954Z" stroke="#E2E7F0" stroke-width="1.5"/>
<path d="M446.019 88.5954H416.675V117.902H446.019V88.5954Z" stroke="#E2E7F0" stroke-width="1.5"/>
<path d="M475.362 88.5954H446.019V117.902H475.362V88.5954Z" stroke="#E2E7F0" stroke-width="1.5"/>
<path d="M504.705 88.5954H475.362V117.902H504.705V88.5954Z" stroke="#E2E7F0" stroke-width="1.5"/>
<path d="M534.049 88.5954H504.705V117.902H534.049V88.5954Z" stroke="#E2E7F0" stroke-width="1.5"/>
<path d="M563.392 88.5954H534.049V117.902H563.392V88.5954Z" stroke="#E2E7F0" stroke-width="1.5"/>
<path d="M592.735 88.5954H563.392V117.902H592.735V88.5954Z" stroke="#E2E7F0" stroke-width="1.5"/>
<path d="M622.078 88.5954H592.735V117.902H622.078V88.5954Z" stroke="#E2E7F0" stroke-width="1.5"/>
<path d="M651.422 88.5954H622.079V117.902H651.422V88.5954Z" stroke="#E2E7F0" stroke-width="1.5"/>
<path d="M680.765 88.5954H651.422V117.902H680.765V88.5954Z" stroke="#E2E7F0" stroke-width="1.5"/>
<path d="M710.109 88.5954H680.765V117.902H710.109V88.5954Z" stroke="#E2E7F0" stroke-width="1.5"/>
<path d="M739.452 88.5954H710.109V117.902H739.452V88.5954Z" stroke="#E2E7F0" stroke-width="1.5"/>
<path d="M768.795 88.5954H739.452V117.902H768.795V88.5954Z" stroke="#E2E7F0" stroke-width="1.5"/>
<path d="M798.138 88.5954H768.795V117.902H798.138V88.5954Z" stroke="#E2E7F0" stroke-width="1.5"/>
<path d="M827.482 88.5954H798.139V117.902H827.482V88.5954Z" stroke="#E2E7F0" stroke-width="1.5"/>
<path d="M856.825 88.5954H827.482V117.902H856.825V88.5954Z" fill="#E2E7F0" fill-opacity="0.3" stroke="#E2E7F0" stroke-width="1.5"/>
<path d="M886.168 88.5954H856.825V117.902H886.168V88.5954Z" stroke="#E2E7F0" stroke-width="1.5"/>
<path d="M915.512 88.5954H886.168V117.902H915.512V88.5954Z" stroke="#E2E7F0" stroke-width="1.5"/>
<path d="M944.855 88.5954H915.512V117.902H944.855V88.5954Z" stroke="#E2E7F0" stroke-width="1.5"/>
<path d="M974.199 88.5954H944.855V117.902H974.199V88.5954Z" stroke="#E2E7F0" stroke-width="1.5"/>
<path d="M1003.54 88.5954H974.198V117.902H1003.54V88.5954Z" fill="#E2E7F0" fill-opacity="0.3" stroke="#E2E7F0" stroke-width="1.5"/>
<path d="M1032.89 88.5954H1003.54V117.902H1032.89V88.5954Z" stroke="#E2E7F0" stroke-width="1.5"/>
<path d="M1062.23 88.5954H1032.89V117.902H1062.23V88.5954Z" stroke="#E2E7F0" stroke-width="1.5"/>
<path d="M1091.57 88.5954H1062.23V117.902H1091.57V88.5954Z" fill="#E2E7F0" fill-opacity="0.3" stroke="#E2E7F0" stroke-width="1.5"/>
<path d="M5.86866 117.902H-23.4747V147.208H5.86866V117.902Z" stroke="#E2E7F0" stroke-width="1.5"/>
<path d="M35.212 117.902H5.86866V147.208H35.212V117.902Z" fill="#E2E7F0" fill-opacity="0.3" stroke="#E2E7F0" stroke-width="1.5"/>
<path d="M64.5553 117.902H35.212V147.208H64.5553V117.902Z" stroke="#E2E7F0" stroke-width="1.5"/>
<path d="M93.8986 117.902H64.5553V147.208H93.8986V117.902Z" stroke="#E2E7F0" stroke-width="1.5"/>
<path d="M123.242 117.902H93.8986V147.208H123.242V117.902Z" stroke="#E2E7F0" stroke-width="1.5"/>
<path d="M152.585 117.902H123.242V147.208H152.585V117.902Z" stroke="#E2E7F0" stroke-width="1.5"/>
<path d="M181.929 117.902H152.585V147.208H181.929V117.902Z" fill="#E2E7F0" fill-opacity="0.3" stroke="#E2E7F0" stroke-width="1.5"/>
<path d="M211.272 117.902H181.929V147.208H211.272V117.902Z" stroke="#E2E7F0" stroke-width="1.5"/>
<path d="M240.615 117.902H211.272V147.208H240.615V117.902Z" stroke="#E2E7F0" stroke-width="1.5"/>
<path d="M269.959 117.902H240.615V147.208H269.959V117.902Z" stroke="#E2E7F0" stroke-width="1.5"/>
<path d="M299.302 117.902H269.959V147.208H299.302V117.902Z" stroke="#E2E7F0" stroke-width="1.5"/>
<path d="M328.645 117.902H299.302V147.208H328.645V117.902Z" stroke="#E2E7F0" stroke-width="1.5"/>
<path d="M357.989 117.902H328.645V147.208H357.989V117.902Z" stroke="#E2E7F0" stroke-width="1.5"/>
<path d="M387.332 117.902H357.989V147.208H387.332V117.902Z" stroke="#E2E7F0" stroke-width="1.5"/>
<path d="M416.675 117.902H387.332V147.208H416.675V117.902Z" stroke="#E2E7F0" stroke-width="1.5"/>
<path d="M446.019 117.902H416.675V147.208H446.019V117.902Z" stroke="#E2E7F0" stroke-width="1.5"/>
<path d="M475.362 117.902H446.019V147.208H475.362V117.902Z" stroke="#E2E7F0" stroke-width="1.5"/>
<path d="M504.705 117.902H475.362V147.208H504.705V117.902Z" stroke="#E2E7F0" stroke-width="1.5"/>
<path d="M534.049 117.902H504.705V147.208H534.049V117.902Z" stroke="#E2E7F0" stroke-width="1.5"/>
<path d="M563.392 117.902H534.049V147.208H563.392V117.902Z" stroke="#E2E7F0" stroke-width="1.5"/>
<path d="M592.735 117.902H563.392V147.208H592.735V117.902Z" stroke="#E2E7F0" stroke-width="1.5"/>
<path d="M622.078 117.902H592.735V147.208H622.078V117.902Z" stroke="#E2E7F0" stroke-width="1.5"/>
<path d="M651.422 117.902H622.079V147.208H651.422V117.902Z" stroke="#E2E7F0" stroke-width="1.5"/>
<path d="M680.765 117.902H651.422V147.208H680.765V117.902Z" stroke="#E2E7F0" stroke-width="1.5"/>
<path d="M710.109 117.902H680.765V147.208H710.109V117.902Z" stroke="#E2E7F0" stroke-width="1.5"/>
<path d="M739.452 117.902H710.109V147.208H739.452V117.902Z" stroke="#E2E7F0" stroke-width="1.5"/>
<path d="M768.795 117.902H739.452V147.208H768.795V117.902Z" stroke="#E2E7F0" stroke-width="1.5"/>
<path d="M798.138 117.902H768.795V147.208H798.138V117.902Z" stroke="#E2E7F0" stroke-width="1.5"/>
<path d="M827.482 117.902H798.139V147.208H827.482V117.902Z" stroke="#E2E7F0" stroke-width="1.5"/>
<path d="M856.825 117.902H827.482V147.208H856.825V117.902Z" stroke="#E2E7F0" stroke-width="1.5"/>
<path d="M886.168 117.902H856.825V147.208H886.168V117.902Z" stroke="#E2E7F0" stroke-width="1.5"/>
<path d="M915.512 117.902H886.168V147.208H915.512V117.902Z" stroke="#E2E7F0" stroke-width="1.5"/>
<path d="M944.855 117.902H915.512V147.208H944.855V117.902Z" stroke="#E2E7F0" stroke-width="1.5"/>
<path d="M974.199 117.902H944.855V147.208H974.199V117.902Z" stroke="#E2E7F0" stroke-width="1.5"/>
<path d="M1003.54 117.902H974.198V147.208H1003.54V117.902Z" stroke="#E2E7F0" stroke-width="1.5"/>
<path d="M1032.89 117.902H1003.54V147.208H1032.89V117.902Z" stroke="#E2E7F0" stroke-width="1.5"/>
<path d="M1062.23 117.902H1032.89V147.208H1062.23V117.902Z" stroke="#E2E7F0" stroke-width="1.5"/>
<path d="M1091.57 117.902H1062.23V147.208H1091.57V117.902Z" stroke="#E2E7F0" stroke-width="1.5"/>
<path d="M5.86866 147.208H-23.4747V176.514H5.86866V147.208Z" stroke="#E2E7F0" stroke-width="1.5"/>
<path d="M35.212 147.208H5.86866V176.514H35.212V147.208Z" stroke="#E2E7F0" stroke-width="1.5"/>
<path d="M64.5553 147.208H35.212V176.514H64.5553V147.208Z" stroke="#E2E7F0" stroke-width="1.5"/>
<path d="M93.8986 147.208H64.5553V176.514H93.8986V147.208Z" stroke="#E2E7F0" stroke-width="1.5"/>
<path d="M123.242 147.208H93.8986V176.514H123.242V147.208Z" stroke="#E2E7F0" stroke-width="1.5"/>
<path d="M152.585 147.208H123.242V176.514H152.585V147.208Z" stroke="#E2E7F0" stroke-width="1.5"/>
<path d="M181.929 147.208H152.585V176.514H181.929V147.208Z" stroke="#E2E7F0" stroke-width="1.5"/>
<path d="M211.272 147.208H181.929V176.514H211.272V147.208Z" stroke="#E2E7F0" stroke-width="1.5"/>
<path d="M240.615 147.208H211.272V176.514H240.615V147.208Z" stroke="#E2E7F0" stroke-width="1.5"/>
<path d="M269.959 147.208H240.615V176.514H269.959V147.208Z" stroke="#E2E7F0" stroke-width="1.5"/>
<path d="M299.302 147.208H269.959V176.514H299.302V147.208Z" stroke="#E2E7F0" stroke-width="1.5"/>
<path d="M328.645 147.208H299.302V176.514H328.645V147.208Z" stroke="#E2E7F0" stroke-width="1.5"/>
<path d="M357.989 147.208H328.645V176.514H357.989V147.208Z" stroke="#E2E7F0" stroke-width="1.5"/>
<path d="M387.332 147.208H357.989V176.514H387.332V147.208Z" stroke="#E2E7F0" stroke-width="1.5"/>
<path d="M416.675 147.208H387.332V176.514H416.675V147.208Z" stroke="#E2E7F0" stroke-width="1.5"/>
<path d="M446.019 147.208H416.675V176.514H446.019V147.208Z" stroke="#E2E7F0" stroke-width="1.5"/>
<path d="M475.362 147.208H446.019V176.514H475.362V147.208Z" stroke="#E2E7F0" stroke-width="1.5"/>
<path d="M504.705 147.208H475.362V176.514H504.705V147.208Z" stroke="#E2E7F0" stroke-width="1.5"/>
<path d="M534.049 147.208H504.705V176.514H534.049V147.208Z" stroke="#E2E7F0" stroke-width="1.5"/>
<path d="M563.392 147.208H534.049V176.514H563.392V147.208Z" stroke="#E2E7F0" stroke-width="1.5"/>
<path d="M592.735 147.208H563.392V176.514H592.735V147.208Z" stroke="#E2E7F0" stroke-width="1.5"/>
<path d="M622.078 147.208H592.735V176.514H622.078V147.208Z" stroke="#E2E7F0" stroke-width="1.5"/>
<path d="M651.422 147.208H622.079V176.514H651.422V147.208Z" stroke="#E2E7F0" stroke-width="1.5"/>
<path d="M680.765 147.208H651.422V176.514H680.765V147.208Z" stroke="#E2E7F0" stroke-width="1.5"/>
<path d="M710.109 147.208H680.765V176.514H710.109V147.208Z" stroke="#E2E7F0" stroke-width="1.5"/>
<path d="M739.452 147.208H710.109V176.514H739.452V147.208Z" stroke="#E2E7F0" stroke-width="1.5"/>
<path d="M768.795 147.208H739.452V176.514H768.795V147.208Z" stroke="#E2E7F0" stroke-width="1.5"/>
<path d="M798.138 147.208H768.795V176.514H798.138V147.208Z" stroke="#E2E7F0" stroke-width="1.5"/>
<path d="M827.482 147.208H798.139V176.514H827.482V147.208Z" stroke="#E2E7F0" stroke-width="1.5"/>
<path d="M856.825 147.208H827.482V176.514H856.825V147.208Z" fill="#E2E7F0" fill-opacity="0.3" stroke="#E2E7F0" stroke-width="1.5"/>
<path d="M886.168 147.208H856.825V176.514H886.168V147.208Z" stroke="#E2E7F0" stroke-width="1.5"/>
<path d="M915.512 147.208H886.168V176.514H915.512V147.208Z" stroke="#E2E7F0" stroke-width="1.5"/>
<path d="M944.855 147.208H915.512V176.514H944.855V147.208Z" stroke="#E2E7F0" stroke-width="1.5"/>
<path d="M974.199 147.208H944.855V176.514H974.199V147.208Z" stroke="#E2E7F0" stroke-width="1.5"/>
<path d="M1003.54 147.208H974.198V176.514H1003.54V147.208Z" stroke="#E2E7F0" stroke-width="1.5"/>
<path d="M1032.89 147.208H1003.54V176.514H1032.89V147.208Z" stroke="#E2E7F0" stroke-width="1.5"/>
<path d="M1062.23 147.208H1032.89V176.514H1062.23V147.208Z" stroke="#E2E7F0" stroke-width="1.5"/>
<path d="M1091.57 147.208H1062.23V176.514H1091.57V147.208Z" stroke="#E2E7F0" stroke-width="1.5"/>
<path d="M5.86866 176.514H-23.4747V205.821H5.86866V176.514Z" stroke="#E2E7F0" stroke-width="1.5"/>
<path d="M35.212 176.514H5.86866V205.821H35.212V176.514Z" stroke="#E2E7F0" stroke-width="1.5"/>
<path d="M64.5553 176.514H35.212V205.821H64.5553V176.514Z" stroke="#E2E7F0" stroke-width="1.5"/>
<path d="M93.8986 176.514H64.5553V205.821H93.8986V176.514Z" stroke="#E2E7F0" stroke-width="1.5"/>
<path d="M123.242 176.514H93.8986V205.821H123.242V176.514Z" stroke="#E2E7F0" stroke-width="1.5"/>
<path d="M152.585 176.514H123.242V205.821H152.585V176.514Z" stroke="#E2E7F0" stroke-width="1.5"/>
<path d="M181.929 176.514H152.585V205.821H181.929V176.514Z" stroke="#E2E7F0" stroke-width="1.5"/>
<path d="M211.272 176.514H181.929V205.821H211.272V176.514Z" stroke="#E2E7F0" stroke-width="1.5"/>
<path d="M240.615 176.514H211.272V205.821H240.615V176.514Z" stroke="#E2E7F0" stroke-width="1.5"/>
<path d="M269.959 176.514H240.615V205.821H269.959V176.514Z" stroke="#E2E7F0" stroke-width="1.5"/>
<path d="M299.302 176.514H269.959V205.821H299.302V176.514Z" stroke="#E2E7F0" stroke-width="1.5"/>
<path d="M328.645 176.514H299.302V205.821H328.645V176.514Z" stroke="#E2E7F0" stroke-width="1.5"/>
<path d="M357.989 176.514H328.645V205.821H357.989V176.514Z" stroke="#E2E7F0" stroke-width="1.5"/>
<path d="M387.332 176.514H357.989V205.821H387.332V176.514Z" stroke="#E2E7F0" stroke-width="1.5"/>
<path d="M416.675 176.514H387.332V205.821H416.675V176.514Z" stroke="#E2E7F0" stroke-width="1.5"/>
<path d="M446.019 176.514H416.675V205.821H446.019V176.514Z" stroke="#E2E7F0" stroke-width="1.5"/>
<path d="M475.362 176.514H446.019V205.821H475.362V176.514Z" stroke="#E2E7F0" stroke-width="1.5"/>
<path d="M504.705 176.514H475.362V205.821H504.705V176.514Z" stroke="#E2E7F0" stroke-width="1.5"/>
<path d="M534.049 176.514H504.705V205.821H534.049V176.514Z" stroke="#E2E7F0" stroke-width="1.5"/>
<path d="M563.392 176.514H534.049V205.821H563.392V176.514Z" stroke="#E2E7F0" stroke-width="1.5"/>
<path d="M592.735 176.514H563.392V205.821H592.735V176.514Z" stroke="#E2E7F0" stroke-width="1.5"/>
<path d="M622.078 176.514H592.735V205.821H622.078V176.514Z" stroke="#E2E7F0" stroke-width="1.5"/>
<path d="M651.422 176.514H622.079V205.821H651.422V176.514Z" stroke="#E2E7F0" stroke-width="1.5"/>
<path d="M680.765 176.514H651.422V205.821H680.765V176.514Z" stroke="#E2E7F0" stroke-width="1.5"/>
<path d="M710.109 176.514H680.765V205.821H710.109V176.514Z" stroke="#E2E7F0" stroke-width="1.5"/>
<path d="M739.452 176.514H710.109V205.821H739.452V176.514Z" stroke="#E2E7F0" stroke-width="1.5"/>
<path d="M768.795 176.514H739.452V205.821H768.795V176.514Z" stroke="#E2E7F0" stroke-width="1.5"/>
<path d="M798.138 176.514H768.795V205.821H798.138V176.514Z" stroke="#E2E7F0" stroke-width="1.5"/>
<path d="M827.482 176.514H798.139V205.821H827.482V176.514Z" stroke="#E2E7F0" stroke-width="1.5"/>
<path d="M856.825 176.514H827.482V205.821H856.825V176.514Z" stroke="#E2E7F0" stroke-width="1.5"/>
<path d="M886.168 176.514H856.825V205.821H886.168V176.514Z" stroke="#E2E7F0" stroke-width="1.5"/>
<path d="M915.512 176.514H886.168V205.821H915.512V176.514Z" stroke="#E2E7F0" stroke-width="1.5"/>
<path d="M944.855 176.514H915.512V205.821H944.855V176.514Z" stroke="#E2E7F0" stroke-width="1.5"/>
<path d="M974.199 176.514H944.855V205.821H974.199V176.514Z" stroke="#E2E7F0" stroke-width="1.5"/>
<path d="M1003.54 176.514H974.198V205.821H1003.54V176.514Z" fill="#E2E7F0" fill-opacity="0.3" stroke="#E2E7F0" stroke-width="1.5"/>
<path d="M1032.89 176.514H1003.54V205.821H1032.89V176.514Z" stroke="#E2E7F0" stroke-width="1.5"/>
<path d="M1062.23 176.514H1032.89V205.821H1062.23V176.514Z" stroke="#E2E7F0" stroke-width="1.5"/>
<path d="M1091.57 176.514H1062.23V205.821H1091.57V176.514Z" stroke="#E2E7F0" stroke-width="1.5"/>
<path d="M5.86866 205.821H-23.4747V235.127H5.86866V205.821Z" fill="#E2E7F0" fill-opacity="0.3" stroke="#E2E7F0" stroke-width="1.5"/>
<path d="M35.212 205.821H5.86866V235.127H35.212V205.821Z" stroke="#E2E7F0" stroke-width="1.5"/>
<path d="M64.5553 205.821H35.212V235.127H64.5553V205.821Z" stroke="#E2E7F0" stroke-width="1.5"/>
<path d="M93.8986 205.821H64.5553V235.127H93.8986V205.821Z" stroke="#E2E7F0" stroke-width="1.5"/>
<path d="M123.242 205.821H93.8986V235.127H123.242V205.821Z" stroke="#E2E7F0" stroke-width="1.5"/>
<path d="M152.585 205.821H123.242V235.127H152.585V205.821Z" stroke="#E2E7F0" stroke-width="1.5"/>
<path d="M181.929 205.821H152.585V235.127H181.929V205.821Z" fill="#E2E7F0" fill-opacity="0.3" stroke="#E2E7F0" stroke-width="1.5"/>
<path d="M211.272 205.821H181.929V235.127H211.272V205.821Z" stroke="#E2E7F0" stroke-width="1.5"/>
<path d="M240.615 205.821H211.272V235.127H240.615V205.821Z" stroke="#E2E7F0" stroke-width="1.5"/>
<path d="M269.959 205.821H240.615V235.127H269.959V205.821Z" stroke="#E2E7F0" stroke-width="1.5"/>
<path d="M299.302 205.821H269.959V235.127H299.302V205.821Z" stroke="#E2E7F0" stroke-width="1.5"/>
<path d="M328.645 205.821H299.302V235.127H328.645V205.821Z" stroke="#E2E7F0" stroke-width="1.5"/>
<path d="M357.989 205.821H328.645V235.127H357.989V205.821Z" stroke="#E2E7F0" stroke-width="1.5"/>
<path d="M387.332 205.821H357.989V235.127H387.332V205.821Z" stroke="#E2E7F0" stroke-width="1.5"/>
<path d="M416.675 205.821H387.332V235.127H416.675V205.821Z" stroke="#E2E7F0" stroke-width="1.5"/>
<path d="M446.019 205.821H416.675V235.127H446.019V205.821Z" stroke="#E2E7F0" stroke-width="1.5"/>
<path d="M475.362 205.821H446.019V235.127H475.362V205.821Z" stroke="#E2E7F0" stroke-width="1.5"/>
<path d="M504.705 205.821H475.362V235.127H504.705V205.821Z" stroke="#E2E7F0" stroke-width="1.5"/>
<path d="M534.049 205.821H504.705V235.127H534.049V205.821Z" stroke="#E2E7F0" stroke-width="1.5"/>
<path d="M563.392 205.821H534.049V235.127H563.392V205.821Z" stroke="#E2E7F0" stroke-width="1.5"/>
<path d="M592.735 205.821H563.392V235.127H592.735V205.821Z" stroke="#E2E7F0" stroke-width="1.5"/>
<path d="M622.078 205.821H592.735V235.127H622.078V205.821Z" stroke="#E2E7F0" stroke-width="1.5"/>
<path d="M651.422 205.821H622.079V235.127H651.422V205.821Z" stroke="#E2E7F0" stroke-width="1.5"/>
<path d="M680.765 205.821H651.422V235.127H680.765V205.821Z" stroke="#E2E7F0" stroke-width="1.5"/>
<path d="M710.109 205.821H680.765V235.127H710.109V205.821Z" stroke="#E2E7F0" stroke-width="1.5"/>
<path d="M739.452 205.821H710.109V235.127H739.452V205.821Z" stroke="#E2E7F0" stroke-width="1.5"/>
<path d="M768.795 205.821H739.452V235.127H768.795V205.821Z" stroke="#E2E7F0" stroke-width="1.5"/>
<path d="M798.138 205.821H768.795V235.127H798.138V205.821Z" stroke="#E2E7F0" stroke-width="1.5"/>
<path d="M827.482 205.821H798.139V235.127H827.482V205.821Z" stroke="#E2E7F0" stroke-width="1.5"/>
<path d="M856.825 205.821H827.482V235.127H856.825V205.821Z" stroke="#E2E7F0" stroke-width="1.5"/>
<path d="M886.168 205.821H856.825V235.127H886.168V205.821Z" fill="#E2E7F0" fill-opacity="0.3" stroke="#E2E7F0" stroke-width="1.5"/>
<path d="M915.512 205.821H886.168V235.127H915.512V205.821Z" stroke="#E2E7F0" stroke-width="1.5"/>
<path d="M944.855 205.821H915.512V235.127H944.855V205.821Z" stroke="#E2E7F0" stroke-width="1.5"/>
<path d="M974.199 205.821H944.855V235.127H974.199V205.821Z" stroke="#E2E7F0" stroke-width="1.5"/>
<path d="M1003.54 205.821H974.198V235.127H1003.54V205.821Z" stroke="#E2E7F0" stroke-width="1.5"/>
<path d="M1032.89 205.821H1003.54V235.127H1032.89V205.821Z" stroke="#E2E7F0" stroke-width="1.5"/>
<path d="M1062.23 205.821H1032.89V235.127H1062.23V205.821Z" stroke="#E2E7F0" stroke-width="1.5"/>
<path d="M1091.57 205.821H1062.23V235.127H1091.57V205.821Z" stroke="#E2E7F0" stroke-width="1.5"/>
<path d="M5.86866 235.127H-23.4747V264.434H5.86866V235.127Z" stroke="#E2E7F0" stroke-width="1.5"/>
<path d="M35.212 235.127H5.86866V264.434H35.212V235.127Z" stroke="#E2E7F0" stroke-width="1.5"/>
<path d="M64.5553 235.127H35.212V264.434H64.5553V235.127Z" stroke="#E2E7F0" stroke-width="1.5"/>
<path d="M93.8986 235.127H64.5553V264.434H93.8986V235.127Z" stroke="#E2E7F0" stroke-width="1.5"/>
<path d="M123.242 235.127H93.8986V264.434H123.242V235.127Z" stroke="#E2E7F0" stroke-width="1.5"/>
<path d="M152.585 235.127H123.242V264.434H152.585V235.127Z" fill="#E2E7F0" fill-opacity="0.3" stroke="#E2E7F0" stroke-width="1.5"/>
<path d="M181.929 235.127H152.585V264.434H181.929V235.127Z" stroke="#E2E7F0" stroke-width="1.5"/>
<path d="M211.272 235.127H181.929V264.434H211.272V235.127Z" stroke="#E2E7F0" stroke-width="1.5"/>
<path d="M240.615 235.127H211.272V264.434H240.615V235.127Z" stroke="#E2E7F0" stroke-width="1.5"/>
<path d="M269.959 235.127H240.615V264.434H269.959V235.127Z" stroke="#E2E7F0" stroke-width="1.5"/>
<path d="M299.302 235.127H269.959V264.434H299.302V235.127Z" stroke="#E2E7F0" stroke-width="1.5"/>
<path d="M328.645 235.127H299.302V264.434H328.645V235.127Z" stroke="#E2E7F0" stroke-width="1.5"/>
<path d="M357.989 235.127H328.645V264.434H357.989V235.127Z" stroke="#E2E7F0" stroke-width="1.5"/>
<path d="M387.332 235.127H357.989V264.434H387.332V235.127Z" stroke="#E2E7F0" stroke-width="1.5"/>
<path d="M416.675 235.127H387.332V264.434H416.675V235.127Z" stroke="#E2E7F0" stroke-width="1.5"/>
<path d="M446.019 235.127H416.675V264.434H446.019V235.127Z" stroke="#E2E7F0" stroke-width="1.5"/>
<path d="M475.362 235.127H446.019V264.434H475.362V235.127Z" stroke="#E2E7F0" stroke-width="1.5"/>
<path d="M504.705 235.127H475.362V264.434H504.705V235.127Z" stroke="#E2E7F0" stroke-width="1.5"/>
<path d="M534.049 235.127H504.705V264.434H534.049V235.127Z" stroke="#E2E7F0" stroke-width="1.5"/>
<path d="M563.392 235.127H534.049V264.434H563.392V235.127Z" stroke="#E2E7F0" stroke-width="1.5"/>
<path d="M592.735 235.127H563.392V264.434H592.735V235.127Z" stroke="#E2E7F0" stroke-width="1.5"/>
<path d="M622.078 235.127H592.735V264.434H622.078V235.127Z" stroke="#E2E7F0" stroke-width="1.5"/>
<path d="M651.422 235.127H622.079V264.434H651.422V235.127Z" stroke="#E2E7F0" stroke-width="1.5"/>
<path d="M680.765 235.127H651.422V264.434H680.765V235.127Z" stroke="#E2E7F0" stroke-width="1.5"/>
<path d="M710.109 235.127H680.765V264.434H710.109V235.127Z" stroke="#E2E7F0" stroke-width="1.5"/>
<path d="M739.452 235.127H710.109V264.434H739.452V235.127Z" stroke="#E2E7F0" stroke-width="1.5"/>
<path d="M768.795 235.127H739.452V264.434H768.795V235.127Z" stroke="#E2E7F0" stroke-width="1.5"/>
<path d="M798.138 235.127H768.795V264.434H798.138V235.127Z" stroke="#E2E7F0" stroke-width="1.5"/>
<path d="M827.482 235.127H798.139V264.434H827.482V235.127Z" stroke="#E2E7F0" stroke-width="1.5"/>
<path d="M856.825 235.127H827.482V264.434H856.825V235.127Z" stroke="#E2E7F0" stroke-width="1.5"/>
<path d="M886.168 235.127H856.825V264.434H886.168V235.127Z" stroke="#E2E7F0" stroke-width="1.5"/>
<path d="M915.512 235.127H886.168V264.434H915.512V235.127Z" stroke="#E2E7F0" stroke-width="1.5"/>
<path d="M944.855 235.127H915.512V264.434H944.855V235.127Z" stroke="#E2E7F0" stroke-width="1.5"/>
<path d="M974.199 235.127H944.855V264.434H974.199V235.127Z" stroke="#E2E7F0" stroke-width="1.5"/>
<path d="M1003.54 235.127H974.198V264.434H1003.54V235.127Z" stroke="#E2E7F0" stroke-width="1.5"/>
<path d="M1032.89 235.127H1003.54V264.434H1032.89V235.127Z" stroke="#E2E7F0" stroke-width="1.5"/>
<path d="M1062.23 235.127H1032.89V264.434H1062.23V235.127Z" stroke="#E2E7F0" stroke-width="1.5"/>
<path d="M1091.57 235.127H1062.23V264.434H1091.57V235.127Z" stroke="#E2E7F0" stroke-width="1.5"/>
<path d="M5.86866 264.434H-23.4747V293.74H5.86866V264.434Z" stroke="#E2E7F0" stroke-width="1.5"/>
<path d="M35.212 264.434H5.86866V293.74H35.212V264.434Z" stroke="#E2E7F0" stroke-width="1.5"/>
<path d="M64.5553 264.434H35.212V293.74H64.5553V264.434Z" stroke="#E2E7F0" stroke-width="1.5"/>
<path d="M93.8986 264.434H64.5553V293.74H93.8986V264.434Z" fill="#E2E7F0" fill-opacity="0.3" stroke="#E2E7F0" stroke-width="1.5"/>
<path d="M123.242 264.434H93.8986V293.74H123.242V264.434Z" stroke="#E2E7F0" stroke-width="1.5"/>
<path d="M152.585 264.434H123.242V293.74H152.585V264.434Z" stroke="#E2E7F0" stroke-width="1.5"/>
<path d="M181.929 264.434H152.585V293.74H181.929V264.434Z" stroke="#E2E7F0" stroke-width="1.5"/>
<path d="M211.272 264.434H181.929V293.74H211.272V264.434Z" stroke="#E2E7F0" stroke-width="1.5"/>
<path d="M240.615 264.434H211.272V293.74H240.615V264.434Z" stroke="#E2E7F0" stroke-width="1.5"/>
<path d="M269.959 264.434H240.615V293.74H269.959V264.434Z" stroke="#E2E7F0" stroke-width="1.5"/>
<path d="M299.302 264.434H269.959V293.74H299.302V264.434Z" stroke="#E2E7F0" stroke-width="1.5"/>
<path d="M328.645 264.434H299.302V293.74H328.645V264.434Z" stroke="#E2E7F0" stroke-width="1.5"/>
<path d="M357.989 264.434H328.645V293.74H357.989V264.434Z" stroke="#E2E7F0" stroke-width="1.5"/>
<path d="M387.332 264.434H357.989V293.74H387.332V264.434Z" stroke="#E2E7F0" stroke-width="1.5"/>
<path d="M416.675 264.434H387.332V293.74H416.675V264.434Z" stroke="#E2E7F0" stroke-width="1.5"/>
<path d="M446.019 264.434H416.675V293.74H446.019V264.434Z" stroke="#E2E7F0" stroke-width="1.5"/>
<path d="M475.362 264.434H446.019V293.74H475.362V264.434Z" stroke="#E2E7F0" stroke-width="1.5"/>
<path d="M504.705 264.434H475.362V293.74H504.705V264.434Z" stroke="#E2E7F0" stroke-width="1.5"/>
<path d="M534.049 264.434H504.705V293.74H534.049V264.434Z" stroke="#E2E7F0" stroke-width="1.5"/>
<path d="M563.392 264.434H534.049V293.74H563.392V264.434Z" stroke="#E2E7F0" stroke-width="1.5"/>
<path d="M592.735 264.434H563.392V293.74H592.735V264.434Z" stroke="#E2E7F0" stroke-width="1.5"/>
<path d="M622.078 264.434H592.735V293.74H622.078V264.434Z" stroke="#E2E7F0" stroke-width="1.5"/>
<path d="M651.422 264.434H622.079V293.74H651.422V264.434Z" stroke="#E2E7F0" stroke-width="1.5"/>
<path d="M680.765 264.434H651.422V293.74H680.765V264.434Z" stroke="#E2E7F0" stroke-width="1.5"/>
<path d="M710.109 264.434H680.765V293.74H710.109V264.434Z" stroke="#E2E7F0" stroke-width="1.5"/>
<path d="M739.452 264.434H710.109V293.74H739.452V264.434Z" stroke="#E2E7F0" stroke-width="1.5"/>
<path d="M768.795 264.434H739.452V293.74H768.795V264.434Z" stroke="#E2E7F0" stroke-width="1.5"/>
<path d="M798.138 264.434H768.795V293.74H798.138V264.434Z" stroke="#E2E7F0" stroke-width="1.5"/>
<path d="M827.482 264.434H798.139V293.74H827.482V264.434Z" stroke="#E2E7F0" stroke-width="1.5"/>
<path d="M856.825 264.434H827.482V293.74H856.825V264.434Z" stroke="#E2E7F0" stroke-width="1.5"/>
<path d="M886.168 264.434H856.825V293.74H886.168V264.434Z" stroke="#E2E7F0" stroke-width="1.5"/>
<path d="M915.512 264.434H886.168V293.74H915.512V264.434Z" stroke="#E2E7F0" stroke-width="1.5"/>
<path d="M944.855 264.434H915.512V293.74H944.855V264.434Z" stroke="#E2E7F0" stroke-width="1.5"/>
<path d="M974.199 264.434H944.855V293.74H974.199V264.434Z" stroke="#E2E7F0" stroke-width="1.5"/>
<path d="M1003.54 264.434H974.198V293.74H1003.54V264.434Z" stroke="#E2E7F0" stroke-width="1.5"/>
<path d="M1032.89 264.434H1003.54V293.74H1032.89V264.434Z" stroke="#E2E7F0" stroke-width="1.5"/>
<path d="M1062.23 264.434H1032.89V293.74H1062.23V264.434Z" fill="#E2E7F0" fill-opacity="0.3" stroke="#E2E7F0" stroke-width="1.5"/>
<path d="M1091.57 264.434H1062.23V293.74H1091.57V264.434Z" stroke="#E2E7F0" stroke-width="1.5"/>
<path d="M5.86866 293.74H-23.4747V323.046H5.86866V293.74Z" stroke="#E2E7F0" stroke-width="1.5"/>
<path d="M35.212 293.74H5.86866V323.046H35.212V293.74Z" stroke="#E2E7F0" stroke-width="1.5"/>
<path d="M64.5553 293.74H35.212V323.046H64.5553V293.74Z" stroke="#E2E7F0" stroke-width="1.5"/>
<path d="M93.8986 293.74H64.5553V323.046H93.8986V293.74Z" stroke="#E2E7F0" stroke-width="1.5"/>
<path d="M123.242 293.74H93.8986V323.046H123.242V293.74Z" stroke="#E2E7F0" stroke-width="1.5"/>
<path d="M152.585 293.74H123.242V323.046H152.585V293.74Z" stroke="#E2E7F0" stroke-width="1.5"/>
<path d="M181.929 293.74H152.585V323.046H181.929V293.74Z" stroke="#E2E7F0" stroke-width="1.5"/>
<path d="M211.272 293.74H181.929V323.046H211.272V293.74Z" fill="#E2E7F0" fill-opacity="0.3" stroke="#E2E7F0" stroke-width="1.5"/>
<path d="M240.615 293.74H211.272V323.046H240.615V293.74Z" stroke="#E2E7F0" stroke-width="1.5"/>
<path d="M269.959 293.74H240.615V323.046H269.959V293.74Z" stroke="#E2E7F0" stroke-width="1.5"/>
<path d="M299.302 293.74H269.959V323.046H299.302V293.74Z" stroke="#E2E7F0" stroke-width="1.5"/>
<path d="M328.645 293.74H299.302V323.046H328.645V293.74Z" stroke="#E2E7F0" stroke-width="1.5"/>
<path d="M357.989 293.74H328.645V323.046H357.989V293.74Z" stroke="#E2E7F0" stroke-width="1.5"/>
<path d="M387.332 293.74H357.989V323.046H387.332V293.74Z" stroke="#E2E7F0" stroke-width="1.5"/>
<path d="M416.675 293.74H387.332V323.046H416.675V293.74Z" fill="#E2E7F0" fill-opacity="0.3" stroke="#E2E7F0" stroke-width="1.5"/>
<path d="M446.019 293.74H416.675V323.046H446.019V293.74Z" stroke="#E2E7F0" stroke-width="1.5"/>
<path d="M475.362 293.74H446.019V323.046H475.362V293.74Z" stroke="#E2E7F0" stroke-width="1.5"/>
<path d="M504.705 293.74H475.362V323.046H504.705V293.74Z" stroke="#E2E7F0" stroke-width="1.5"/>
<path d="M534.049 293.74H504.705V323.046H534.049V293.74Z" stroke="#E2E7F0" stroke-width="1.5"/>
<path d="M563.392 293.74H534.049V323.046H563.392V293.74Z" stroke="#E2E7F0" stroke-width="1.5"/>
<path d="M592.735 293.74H563.392V323.046H592.735V293.74Z" stroke="#E2E7F0" stroke-width="1.5"/>
<path d="M622.078 293.74H592.735V323.046H622.078V293.74Z" stroke="#E2E7F0" stroke-width="1.5"/>
<path d="M651.422 293.74H622.079V323.046H651.422V293.74Z" stroke="#E2E7F0" stroke-width="1.5"/>
<path d="M680.765 293.74H651.422V323.046H680.765V293.74Z" stroke="#E2E7F0" stroke-width="1.5"/>
<path d="M710.109 293.74H680.765V323.046H710.109V293.74Z" stroke="#E2E7F0" stroke-width="1.5"/>
<path d="M739.452 293.74H710.109V323.046H739.452V293.74Z" stroke="#E2E7F0" stroke-width="1.5"/>
<path d="M768.795 293.74H739.452V323.046H768.795V293.74Z" stroke="#E2E7F0" stroke-width="1.5"/>
<path d="M798.138 293.74H768.795V323.046H798.138V293.74Z" stroke="#E2E7F0" stroke-width="1.5"/>
<path d="M827.482 293.74H798.139V323.046H827.482V293.74Z" stroke="#E2E7F0" stroke-width="1.5"/>
<path d="M856.825 293.74H827.482V323.046H856.825V293.74Z" stroke="#E2E7F0" stroke-width="1.5"/>
<path d="M886.168 293.74H856.825V323.046H886.168V293.74Z" stroke="#E2E7F0" stroke-width="1.5"/>
<path d="M915.512 293.74H886.168V323.046H915.512V293.74Z" stroke="#E2E7F0" stroke-width="1.5"/>
<path d="M944.855 293.74H915.512V323.046H944.855V293.74Z" stroke="#E2E7F0" stroke-width="1.5"/>
<path d="M974.199 293.74H944.855V323.046H974.199V293.74Z" stroke="#E2E7F0" stroke-width="1.5"/>
<path d="M1003.54 293.74H974.198V323.046H1003.54V293.74Z" stroke="#E2E7F0" stroke-width="1.5"/>
<path d="M1032.89 293.74H1003.54V323.046H1032.89V293.74Z" stroke="#E2E7F0" stroke-width="1.5"/>
<path d="M1062.23 293.74H1032.89V323.046H1062.23V293.74Z" stroke="#E2E7F0" stroke-width="1.5"/>
<path d="M1091.57 293.74H1062.23V323.046H1091.57V293.74Z" stroke="#E2E7F0" stroke-width="1.5"/>
<path d="M5.86866 323.046H-23.4747V352.353H5.86866V323.046Z" stroke="#E2E7F0" stroke-width="1.5"/>
<path d="M35.212 323.046H5.86866V352.353H35.212V323.046Z" stroke="#E2E7F0" stroke-width="1.5"/>
<path d="M64.5553 323.046H35.212V352.353H64.5553V323.046Z" stroke="#E2E7F0" stroke-width="1.5"/>
<path d="M93.8986 323.046H64.5553V352.353H93.8986V323.046Z" stroke="#E2E7F0" stroke-width="1.5"/>
<path d="M123.242 323.046H93.8986V352.353H123.242V323.046Z" stroke="#E2E7F0" stroke-width="1.5"/>
<path d="M152.585 323.046H123.242V352.353H152.585V323.046Z" stroke="#E2E7F0" stroke-width="1.5"/>
<path d="M181.929 323.046H152.585V352.353H181.929V323.046Z" stroke="#E2E7F0" stroke-width="1.5"/>
<path d="M211.272 323.046H181.929V352.353H211.272V323.046Z" stroke="#E2E7F0" stroke-width="1.5"/>
<path d="M240.615 323.046H211.272V352.353H240.615V323.046Z" stroke="#E2E7F0" stroke-width="1.5"/>
<path d="M269.959 323.046H240.615V352.353H269.959V323.046Z" stroke="#E2E7F0" stroke-width="1.5"/>
<path d="M299.302 323.046H269.959V352.353H299.302V323.046Z" stroke="#E2E7F0" stroke-width="1.5"/>
<path d="M328.645 323.046H299.302V352.353H328.645V323.046Z" stroke="#E2E7F0" stroke-width="1.5"/>
<path d="M357.989 323.046H328.645V352.353H357.989V323.046Z" stroke="#E2E7F0" stroke-width="1.5"/>
<path d="M387.332 323.046H357.989V352.353H387.332V323.046Z" stroke="#E2E7F0" stroke-width="1.5"/>
<path d="M416.675 323.046H387.332V352.353H416.675V323.046Z" stroke="#E2E7F0" stroke-width="1.5"/>
<path d="M446.019 323.046H416.675V352.353H446.019V323.046Z" stroke="#E2E7F0" stroke-width="1.5"/>
<path d="M475.362 323.046H446.019V352.353H475.362V323.046Z" stroke="#E2E7F0" stroke-width="1.5"/>
<path d="M504.705 323.046H475.362V352.353H504.705V323.046Z" stroke="#E2E7F0" stroke-width="1.5"/>
<path d="M534.049 323.046H504.705V352.353H534.049V323.046Z" stroke="#E2E7F0" stroke-width="1.5"/>
<path d="M563.392 323.046H534.049V352.353H563.392V323.046Z" stroke="#E2E7F0" stroke-width="1.5"/>
<path d="M592.735 323.046H563.392V352.353H592.735V323.046Z" stroke="#E2E7F0" stroke-width="1.5"/>
<path d="M622.078 323.046H592.735V352.353H622.078V323.046Z" stroke="#E2E7F0" stroke-width="1.5"/>
<path d="M651.422 323.046H622.079V352.353H651.422V323.046Z" stroke="#E2E7F0" stroke-width="1.5"/>
<path d="M680.765 323.046H651.422V352.353H680.765V323.046Z" stroke="#E2E7F0" stroke-width="1.5"/>
<path d="M710.109 323.046H680.765V352.353H710.109V323.046Z" stroke="#E2E7F0" stroke-width="1.5"/>
<path d="M739.452 323.046H710.109V352.353H739.452V323.046Z" stroke="#E2E7F0" stroke-width="1.5"/>
<path d="M768.795 323.046H739.452V352.353H768.795V323.046Z" stroke="#E2E7F0" stroke-width="1.5"/>
<path d="M798.138 323.046H768.795V352.353H798.138V323.046Z" fill="#E2E7F0" fill-opacity="0.3" stroke="#E2E7F0" stroke-width="1.5"/>
<path d="M827.482 323.046H798.139V352.353H827.482V323.046Z" stroke="#E2E7F0" stroke-width="1.5"/>
<path d="M856.825 323.046H827.482V352.353H856.825V323.046Z" stroke="#E2E7F0" stroke-width="1.5"/>
<path d="M886.168 323.046H856.825V352.353H886.168V323.046Z" stroke="#E2E7F0" stroke-width="1.5"/>
<path d="M915.512 323.046H886.168V352.353H915.512V323.046Z" stroke="#E2E7F0" stroke-width="1.5"/>
<path d="M944.855 323.046H915.512V352.353H944.855V323.046Z" stroke="#E2E7F0" stroke-width="1.5"/>
<path d="M974.199 323.046H944.855V352.353H974.199V323.046Z" stroke="#E2E7F0" stroke-width="1.5"/>
<path d="M1003.54 323.046H974.198V352.353H1003.54V323.046Z" fill="#E2E7F0" fill-opacity="0.3" stroke="#E2E7F0" stroke-width="1.5"/>
<path d="M1032.89 323.046H1003.54V352.353H1032.89V323.046Z" stroke="#E2E7F0" stroke-width="1.5"/>
<path d="M1062.23 323.046H1032.89V352.353H1062.23V323.046Z" stroke="#E2E7F0" stroke-width="1.5"/>
<path d="M1091.57 323.046H1062.23V352.353H1091.57V323.046Z" stroke="#E2E7F0" stroke-width="1.5"/>
<path d="M5.86866 352.353H-23.4747V381.659H5.86866V352.353Z" stroke="#E2E7F0" stroke-width="1.5"/>
<path d="M35.212 352.353H5.86866V381.659H35.212V352.353Z" stroke="#E2E7F0" stroke-width="1.5"/>
<path d="M64.5553 352.353H35.212V381.659H64.5553V352.353Z" fill="#E2E7F0" fill-opacity="0.3" stroke="#E2E7F0" stroke-width="1.5"/>
<path d="M93.8986 352.353H64.5553V381.659H93.8986V352.353Z" stroke="#E2E7F0" stroke-width="1.5"/>
<path d="M123.242 352.353H93.8986V381.659H123.242V352.353Z" stroke="#E2E7F0" stroke-width="1.5"/>
<path d="M152.585 352.353H123.242V381.659H152.585V352.353Z" stroke="#E2E7F0" stroke-width="1.5"/>
<path d="M181.929 352.353H152.585V381.659H181.929V352.353Z" stroke="#E2E7F0" stroke-width="1.5"/>
<path d="M211.272 352.353H181.929V381.659H211.272V352.353Z" stroke="#E2E7F0" stroke-width="1.5"/>
<path d="M240.615 352.353H211.272V381.659H240.615V352.353Z" stroke="#E2E7F0" stroke-width="1.5"/>
<path d="M269.959 352.353H240.615V381.659H269.959V352.353Z" stroke="#E2E7F0" stroke-width="1.5"/>
<path d="M299.302 352.353H269.959V381.659H299.302V352.353Z" stroke="#E2E7F0" stroke-width="1.5"/>
<path d="M328.645 352.353H299.302V381.659H328.645V352.353Z" stroke="#E2E7F0" stroke-width="1.5"/>
<path d="M357.989 352.353H328.645V381.659H357.989V352.353Z" fill="#E2E7F0" fill-opacity="0.3" stroke="#E2E7F0" stroke-width="1.5"/>
<path d="M387.332 352.353H357.989V381.659H387.332V352.353Z" stroke="#E2E7F0" stroke-width="1.5"/>
<path d="M416.675 352.353H387.332V381.659H416.675V352.353Z" stroke="#E2E7F0" stroke-width="1.5"/>
<path d="M446.019 352.353H416.675V381.659H446.019V352.353Z" stroke="#E2E7F0" stroke-width="1.5"/>
<path d="M475.362 352.353H446.019V381.659H475.362V352.353Z" stroke="#E2E7F0" stroke-width="1.5"/>
<path d="M504.705 352.353H475.362V381.659H504.705V352.353Z" stroke="#E2E7F0" stroke-width="1.5"/>
<path d="M534.049 352.353H504.705V381.659H534.049V352.353Z" stroke="#E2E7F0" stroke-width="1.5"/>
<path d="M563.392 352.353H534.049V381.659H563.392V352.353Z" stroke="#E2E7F0" stroke-width="1.5"/>
<path d="M592.735 352.353H563.392V381.659H592.735V352.353Z" stroke="#E2E7F0" stroke-width="1.5"/>
<path d="M622.078 352.353H592.735V381.659H622.078V352.353Z" stroke="#E2E7F0" stroke-width="1.5"/>
<path d="M651.422 352.353H622.079V381.659H651.422V352.353Z" stroke="#E2E7F0" stroke-width="1.5"/>
<path d="M680.765 352.353H651.422V381.659H680.765V352.353Z" stroke="#E2E7F0" stroke-width="1.5"/>
<path d="M710.109 352.353H680.765V381.659H710.109V352.353Z" stroke="#E2E7F0" stroke-width="1.5"/>
<path d="M739.452 352.353H710.109V381.659H739.452V352.353Z" fill="#E2E7F0" fill-opacity="0.3" stroke="#E2E7F0" stroke-width="1.5"/>
<path d="M768.795 352.353H739.452V381.659H768.795V352.353Z" stroke="#E2E7F0" stroke-width="1.5"/>
<path d="M798.138 352.353H768.795V381.659H798.138V352.353Z" stroke="#E2E7F0" stroke-width="1.5"/>
<path d="M827.482 352.353H798.139V381.659H827.482V352.353Z" stroke="#E2E7F0" stroke-width="1.5"/>
<path d="M856.825 352.353H827.482V381.659H856.825V352.353Z" stroke="#E2E7F0" stroke-width="1.5"/>
<path d="M886.168 352.353H856.825V381.659H886.168V352.353Z" stroke="#E2E7F0" stroke-width="1.5"/>
<path d="M915.512 352.353H886.168V381.659H915.512V352.353Z" stroke="#E2E7F0" stroke-width="1.5"/>
<path d="M944.855 352.353H915.512V381.659H944.855V352.353Z" stroke="#E2E7F0" stroke-width="1.5"/>
<path d="M974.199 352.353H944.855V381.659H974.199V352.353Z" stroke="#E2E7F0" stroke-width="1.5"/>
<path d="M1003.54 352.353H974.198V381.659H1003.54V352.353Z" stroke="#E2E7F0" stroke-width="1.5"/>
<path d="M1032.89 352.353H1003.54V381.659H1032.89V352.353Z" stroke="#E2E7F0" stroke-width="1.5"/>
<path d="M1062.23 352.353H1032.89V381.659H1062.23V352.353Z" stroke="#E2E7F0" stroke-width="1.5"/>
<path d="M1091.57 352.353H1062.23V381.659H1091.57V352.353Z" stroke="#E2E7F0" stroke-width="1.5"/>
<path d="M5.86866 381.659H-23.4747V410.965H5.86866V381.659Z" stroke="#E2E7F0" stroke-width="1.5"/>
<path d="M35.212 381.659H5.86866V410.965H35.212V381.659Z" stroke="#E2E7F0" stroke-width="1.5"/>
<path d="M64.5553 381.659H35.212V410.965H64.5553V381.659Z" stroke="#E2E7F0" stroke-width="1.5"/>
<path d="M93.8986 381.659H64.5553V410.965H93.8986V381.659Z" stroke="#E2E7F0" stroke-width="1.5"/>
<path d="M123.242 381.659H93.8986V410.965H123.242V381.659Z" stroke="#E2E7F0" stroke-width="1.5"/>
<path d="M152.585 381.659H123.242V410.965H152.585V381.659Z" fill="#E2E7F0" fill-opacity="0.3" stroke="#E2E7F0" stroke-width="1.5"/>
<path d="M181.929 381.659H152.585V410.965H181.929V381.659Z" stroke="#E2E7F0" stroke-width="1.5"/>
<path d="M211.272 381.659H181.929V410.965H211.272V381.659Z" stroke="#E2E7F0" stroke-width="1.5"/>
<path d="M240.615 381.659H211.272V410.965H240.615V381.659Z" stroke="#E2E7F0" stroke-width="1.5"/>
<path d="M269.959 381.659H240.615V410.965H269.959V381.659Z" stroke="#E2E7F0" stroke-width="1.5"/>
<path d="M299.302 381.659H269.959V410.965H299.302V381.659Z" stroke="#E2E7F0" stroke-width="1.5"/>
<path d="M328.645 381.659H299.302V410.965H328.645V381.659Z" stroke="#E2E7F0" stroke-width="1.5"/>
<path d="M357.989 381.659H328.645V410.965H357.989V381.659Z" stroke="#E2E7F0" stroke-width="1.5"/>
<path d="M387.332 381.659H357.989V410.965H387.332V381.659Z" stroke="#E2E7F0" stroke-width="1.5"/>
<path d="M416.675 381.659H387.332V410.965H416.675V381.659Z" stroke="#E2E7F0" stroke-width="1.5"/>
<path d="M446.019 381.659H416.675V410.965H446.019V381.659Z" stroke="#E2E7F0" stroke-width="1.5"/>
<path d="M475.362 381.659H446.019V410.965H475.362V381.659Z" stroke="#E2E7F0" stroke-width="1.5"/>
<path d="M504.705 381.659H475.362V410.965H504.705V381.659Z" stroke="#E2E7F0" stroke-width="1.5"/>
<path d="M534.049 381.659H504.705V410.965H534.049V381.659Z" stroke="#E2E7F0" stroke-width="1.5"/>
<path d="M563.392 381.659H534.049V410.965H563.392V381.659Z" stroke="#E2E7F0" stroke-width="1.5"/>
<path d="M592.735 381.659H563.392V410.965H592.735V381.659Z" stroke="#E2E7F0" stroke-width="1.5"/>
<path d="M622.078 381.659H592.735V410.965H622.078V381.659Z" stroke="#E2E7F0" stroke-width="1.5"/>
<path d="M651.422 381.659H622.079V410.965H651.422V381.659Z" stroke="#E2E7F0" stroke-width="1.5"/>
<path d="M680.765 381.659H651.422V410.965H680.765V381.659Z" stroke="#E2E7F0" stroke-width="1.5"/>
<path d="M710.109 381.659H680.765V410.965H710.109V381.659Z" stroke="#E2E7F0" stroke-width="1.5"/>
<path d="M739.452 381.659H710.109V410.965H739.452V381.659Z" stroke="#E2E7F0" stroke-width="1.5"/>
<path d="M768.795 381.659H739.452V410.965H768.795V381.659Z" stroke="#E2E7F0" stroke-width="1.5"/>
<path d="M798.138 381.659H768.795V410.965H798.138V381.659Z" stroke="#E2E7F0" stroke-width="1.5"/>
<path d="M827.482 381.659H798.139V410.965H827.482V381.659Z" stroke="#E2E7F0" stroke-width="1.5"/>
<path d="M856.825 381.659H827.482V410.965H856.825V381.659Z" stroke="#E2E7F0" stroke-width="1.5"/>
<path d="M886.168 381.659H856.825V410.965H886.168V381.659Z" stroke="#E2E7F0" stroke-width="1.5"/>
<path d="M915.512 381.659H886.168V410.965H915.512V381.659Z" stroke="#E2E7F0" stroke-width="1.5"/>
<path d="M944.855 381.659H915.512V410.965H944.855V381.659Z" stroke="#E2E7F0" stroke-width="1.5"/>
<path d="M974.199 381.659H944.855V410.965H974.199V381.659Z" stroke="#E2E7F0" stroke-width="1.5"/>
<path d="M1003.54 381.659H974.198V410.965H1003.54V381.659Z" stroke="#E2E7F0" stroke-width="1.5"/>
<path d="M1032.89 381.659H1003.54V410.965H1032.89V381.659Z" stroke="#E2E7F0" stroke-width="1.5"/>
<path d="M1062.23 381.659H1032.89V410.965H1062.23V381.659Z" stroke="#E2E7F0" stroke-width="1.5"/>
<path d="M1091.57 381.659H1062.23V410.965H1091.57V381.659Z" stroke="#E2E7F0" stroke-width="1.5"/>
</g>
<path d="M1069 0H0V477.919H1069V0Z" fill="url(#paint1_radial_52_335)" fill-opacity="0.2"/>
</g>
</g>
<path d="M170.15 353.629C171.681 353.629 172.752 354.853 172.752 356.23C172.752 357.76 171.528 358.832 170.15 358.832C168.62 358.832 167.549 357.607 167.549 356.23C167.396 354.853 168.62 353.629 170.15 353.629Z" fill="white"/>
<path d="M206.266 342.151C207.796 342.151 208.868 343.375 208.868 344.753C208.868 346.283 207.643 347.354 206.266 347.354C204.889 347.354 203.665 346.13 203.665 344.753C203.818 343.375 205.042 342.151 206.266 342.151Z" fill="white"/>
<path d="M155 331.591V335.111H191.575C190.045 337.406 189.127 340.161 188.821 343.069H168.773V346.741H188.668C188.974 349.649 189.892 352.404 191.422 354.699H176.272V358.219H194.483C197.697 360.974 201.828 362.81 206.42 362.81C216.367 362.81 224.325 354.852 224.325 344.905C224.325 334.958 216.214 327 206.266 327C201.675 327 197.544 328.683 194.33 331.591H155ZM192.187 344.752C192.187 336.947 198.462 330.673 206.266 330.673C214.071 330.673 220.346 336.947 220.346 344.752C220.346 352.557 214.071 358.831 206.266 358.831C198.615 358.831 192.187 352.557 192.187 344.752Z" fill="white"/>
<path d="M80.8038 351.825L72.2385 337.016C71.8458 336.336 70.878 335.779 70.0878 335.779H64.7403C63.4974 335.779 62.9878 334.904 63.6078 333.835L66.5403 328.778C66.773 328.377 66.7725 327.883 66.539 327.482C66.3054 327.081 65.8743 326.834 65.4078 326.834H57.948C57.1578 326.834 56.1878 327.39 55.7923 328.069L41.2967 352.965C40.9013 353.644 40.901 354.756 41.2962 355.435L45.026 361.847C45.6475 362.916 46.6666 362.917 47.2907 361.85L50.2052 356.868C50.8293 355.801 51.8485 355.803 52.4699 356.871L55.1121 361.413C55.5072 362.093 56.4769 362.648 57.2671 362.648H74.505C75.2953 362.648 76.265 362.093 76.6601 361.413L80.7995 354.297C81.1946 353.618 81.1965 352.505 80.8038 351.825ZM69.2364 351.112C69.8539 352.183 69.3423 353.059 68.0994 353.059H54.6911C53.4482 353.059 52.9397 352.184 53.5611 351.116L60.2706 339.581C60.892 338.513 61.9089 338.513 62.5303 339.581L69.2364 351.112Z" fill="white"/>
<path d="M122.155 352.074L112.353 342.281L113.964 340.662L123.765 350.463L122.155 352.074ZM113.964 352.074L112.353 350.463L122.155 340.662L123.765 342.281L113.964 352.074Z" fill="white"/>
<path d="M303.205 141.25V151.478H277.33V141.25H303.205ZM282.342 131.841H296.455V167.892C296.455 168.438 296.549 168.898 296.736 169.273C296.924 169.631 297.214 169.904 297.606 170.091C297.998 170.262 298.501 170.347 299.114 170.347C299.54 170.347 300.035 170.296 300.597 170.193C301.177 170.091 301.603 170.006 301.876 169.938L303.921 179.858C303.29 180.046 302.387 180.276 301.211 180.549C300.052 180.821 298.671 181 297.069 181.086C293.83 181.256 291.111 180.924 288.913 180.088C286.714 179.236 285.06 177.898 283.952 176.074C282.844 174.25 282.307 171.966 282.342 169.222V131.841ZM308.964 180.523V141.25H322.669V148.716H323.078C323.794 145.955 324.928 143.935 326.479 142.657C328.047 141.378 329.879 140.739 331.976 140.739C332.589 140.739 333.195 140.79 333.791 140.892C334.405 140.978 334.993 141.105 335.555 141.276V153.318C334.856 153.08 333.996 152.901 332.973 152.782C331.95 152.662 331.072 152.603 330.339 152.603C328.959 152.603 327.714 152.918 326.606 153.549C325.516 154.162 324.655 155.032 324.024 156.157C323.393 157.264 323.078 158.568 323.078 160.068V180.523H308.964ZM349.298 181.137C346.793 181.137 344.577 180.728 342.651 179.909C340.741 179.074 339.241 177.813 338.151 176.125C337.06 174.438 336.514 172.29 336.514 169.682C336.514 167.534 336.881 165.702 337.614 164.185C338.347 162.651 339.369 161.398 340.682 160.426C341.994 159.455 343.52 158.713 345.258 158.202C347.014 157.691 348.906 157.358 350.935 157.205C353.133 157.034 354.898 156.83 356.227 156.591C357.574 156.336 358.545 155.986 359.142 155.543C359.739 155.083 360.037 154.478 360.037 153.728V153.625C360.037 152.603 359.645 151.818 358.861 151.273C358.077 150.728 357.071 150.455 355.844 150.455C354.497 150.455 353.398 150.753 352.545 151.35C351.71 151.929 351.207 152.824 351.037 154.034H338.048C338.219 151.648 338.977 149.449 340.324 147.438C341.687 145.409 343.673 143.79 346.281 142.58C348.889 141.353 352.145 140.739 356.048 140.739C358.861 140.739 361.383 141.071 363.616 141.736C365.849 142.384 367.75 143.296 369.318 144.472C370.886 145.631 372.079 146.995 372.898 148.563C373.733 150.114 374.151 151.801 374.151 153.625V180.523H360.957V175H360.651C359.866 176.466 358.912 177.651 357.787 178.554C356.679 179.458 355.409 180.114 353.977 180.523C352.562 180.932 351.003 181.137 349.298 181.137ZM353.901 172.239C354.974 172.239 355.98 172.017 356.918 171.574C357.872 171.131 358.648 170.492 359.244 169.657C359.841 168.821 360.139 167.807 360.139 166.614V163.341C359.764 163.495 359.364 163.639 358.937 163.776C358.528 163.912 358.085 164.04 357.608 164.159C357.148 164.279 356.653 164.389 356.125 164.492C355.614 164.594 355.077 164.688 354.514 164.773C353.423 164.943 352.528 165.225 351.829 165.617C351.148 165.992 350.636 166.461 350.295 167.023C349.972 167.568 349.81 168.182 349.81 168.864C349.81 169.955 350.193 170.79 350.96 171.37C351.727 171.949 352.707 172.239 353.901 172.239ZM399.815 181.239C395.553 181.239 391.905 180.395 388.871 178.708C385.837 177.003 383.511 174.634 381.891 171.6C380.272 168.549 379.462 165.012 379.462 160.989C379.462 156.966 380.272 153.438 381.891 150.404C383.511 147.353 385.837 144.983 388.871 143.296C391.905 141.591 395.553 140.739 399.815 140.739C403.667 140.739 406.999 141.438 409.812 142.836C412.641 144.216 414.832 146.176 416.383 148.716C417.934 151.239 418.718 154.205 418.735 157.614H405.644C405.457 155.551 404.86 153.983 403.854 152.909C402.866 151.818 401.587 151.273 400.019 151.273C398.792 151.273 397.718 151.631 396.798 152.347C395.877 153.046 395.161 154.111 394.65 155.543C394.138 156.958 393.883 158.739 393.883 160.887C393.883 163.034 394.138 164.824 394.65 166.256C395.161 167.671 395.877 168.736 396.798 169.452C397.718 170.151 398.792 170.5 400.019 170.5C401.059 170.5 401.979 170.262 402.78 169.784C403.582 169.29 404.229 168.574 404.724 167.637C405.235 166.682 405.542 165.523 405.644 164.159H418.735C418.684 167.62 417.891 170.637 416.357 173.211C414.823 175.767 412.65 177.745 409.837 179.142C407.042 180.54 403.701 181.239 399.815 181.239ZM424.558 180.523V141.25H438.672V180.523H424.558ZM431.615 137.159C429.706 137.159 428.07 136.529 426.706 135.267C425.342 134.006 424.66 132.489 424.66 130.716C424.66 128.943 425.342 127.426 426.706 126.165C428.07 124.904 429.706 124.273 431.615 124.273C433.541 124.273 435.178 124.904 436.524 126.165C437.888 127.426 438.57 128.943 438.57 130.716C438.57 132.489 437.888 134.006 436.524 135.267C435.178 136.529 433.541 137.159 431.615 137.159ZM459.977 158.432V180.523H445.863V141.25H459.261V148.716H459.67C460.522 146.228 462.022 144.276 464.17 142.861C466.334 141.446 468.857 140.739 471.738 140.739C474.516 140.739 476.928 141.378 478.974 142.657C481.036 143.918 482.63 145.657 483.755 147.872C484.897 150.088 485.459 152.62 485.442 155.466V180.523H471.329V158.432C471.346 156.489 470.852 154.963 469.846 153.855C468.857 152.747 467.477 152.193 465.704 152.193C464.545 152.193 463.53 152.449 462.661 152.961C461.809 153.455 461.153 154.171 460.692 155.108C460.232 156.029 459.994 157.137 459.977 158.432ZM511.33 196.068C507.393 196.068 504.018 195.506 501.205 194.381C498.41 193.273 496.236 191.739 494.685 189.779C493.151 187.836 492.29 185.603 492.103 183.08H505.705C505.842 183.915 506.182 184.588 506.728 185.1C507.273 185.611 507.972 185.978 508.825 186.199C509.694 186.438 510.665 186.557 511.739 186.557C513.563 186.557 515.072 186.114 516.265 185.228C517.475 184.341 518.08 182.739 518.08 180.421V173.773H517.671C517.16 175.103 516.376 176.236 515.319 177.174C514.262 178.094 512.992 178.801 511.509 179.296C510.026 179.773 508.398 180.012 506.626 180.012C503.83 180.012 501.256 179.364 498.904 178.068C496.569 176.773 494.694 174.719 493.279 171.907C491.881 169.094 491.182 165.421 491.182 160.887C491.182 156.148 491.915 152.296 493.381 149.33C494.864 146.364 496.773 144.191 499.109 142.81C501.461 141.429 503.932 140.739 506.523 140.739C508.467 140.739 510.171 141.08 511.637 141.762C513.103 142.426 514.33 143.321 515.319 144.446C516.307 145.554 517.057 146.773 517.569 148.103H517.876V141.25H531.989V180.421C531.989 183.745 531.128 186.566 529.407 188.884C527.702 191.219 525.299 193 522.197 194.228C519.094 195.455 515.472 196.068 511.33 196.068ZM511.842 169.989C513.137 169.989 514.245 169.631 515.165 168.915C516.103 168.182 516.819 167.142 517.313 165.796C517.825 164.432 518.08 162.796 518.08 160.887C518.08 158.943 517.825 157.282 517.313 155.901C516.819 154.503 516.103 153.438 515.165 152.705C514.245 151.955 513.137 151.58 511.842 151.58C510.546 151.58 509.438 151.955 508.518 152.705C507.614 153.438 506.915 154.503 506.421 155.901C505.944 157.282 505.705 158.943 505.705 160.887C505.705 162.83 505.944 164.483 506.421 165.847C506.915 167.193 507.614 168.225 508.518 168.941C509.438 169.639 510.546 169.989 511.842 169.989ZM564.94 154.341V164.978H540.395V154.341H564.94ZM584.283 181.137C581.777 181.137 579.561 180.728 577.635 179.909C575.726 179.074 574.226 177.813 573.135 176.125C572.044 174.438 571.499 172.29 571.499 169.682C571.499 167.534 571.865 165.702 572.598 164.185C573.331 162.651 574.354 161.398 575.666 160.426C576.979 159.455 578.504 158.713 580.243 158.202C581.999 157.691 583.891 157.358 585.919 157.205C588.118 157.034 589.882 156.83 591.212 156.591C592.558 156.336 593.53 155.986 594.126 155.543C594.723 155.083 595.021 154.478 595.021 153.728V153.625C595.021 152.603 594.629 151.818 593.845 151.273C593.061 150.728 592.055 150.455 590.828 150.455C589.481 150.455 588.382 150.753 587.53 151.35C586.695 151.929 586.192 152.824 586.021 154.034H573.033C573.203 151.648 573.962 149.449 575.308 147.438C576.672 145.409 578.658 143.79 581.266 142.58C583.874 141.353 587.129 140.739 591.033 140.739C593.845 140.739 596.368 141.071 598.601 141.736C600.834 142.384 602.734 143.296 604.303 144.472C605.871 145.631 607.064 146.995 607.882 148.563C608.717 150.114 609.135 151.801 609.135 153.625V180.523H595.942V175H595.635C594.851 176.466 593.896 177.651 592.771 178.554C591.663 179.458 590.393 180.114 588.962 180.523C587.547 180.932 585.987 181.137 584.283 181.137ZM588.885 172.239C589.959 172.239 590.964 172.017 591.902 171.574C592.856 171.131 593.632 170.492 594.229 169.657C594.825 168.821 595.124 167.807 595.124 166.614V163.341C594.749 163.495 594.348 163.639 593.922 163.776C593.513 163.912 593.07 164.04 592.592 164.159C592.132 164.279 591.638 164.389 591.109 164.492C590.598 164.594 590.061 164.688 589.499 164.773C588.408 164.943 587.513 165.225 586.814 165.617C586.132 165.992 585.621 166.461 585.28 167.023C584.956 167.568 584.794 168.182 584.794 168.864C584.794 169.955 585.178 170.79 585.945 171.37C586.712 171.949 587.692 172.239 588.885 172.239ZM628.049 141.25L633.776 153.421L639.81 141.25H653.822L643.288 160.887L654.333 180.523H640.424L633.776 168.046L627.333 180.523H613.219L624.367 160.887L613.935 141.25H628.049ZM658.839 180.523V141.25H672.953V180.523H658.839ZM665.896 137.159C663.987 137.159 662.351 136.529 660.987 135.267C659.624 134.006 658.942 132.489 658.942 130.716C658.942 128.943 659.624 127.426 660.987 126.165C662.351 124.904 663.987 124.273 665.896 124.273C667.822 124.273 669.459 124.904 670.805 126.165C672.169 127.426 672.851 128.943 672.851 130.716C672.851 132.489 672.169 134.006 670.805 135.267C669.459 136.529 667.822 137.159 665.896 137.159ZM699.065 181.239C694.803 181.239 691.155 180.395 688.121 178.708C685.087 177.003 682.761 174.634 681.141 171.6C679.522 168.549 678.712 165.012 678.712 160.989C678.712 156.966 679.522 153.438 681.141 150.404C682.761 147.353 685.087 144.983 688.121 143.296C691.155 141.591 694.803 140.739 699.065 140.739C703.326 140.739 706.974 141.591 710.008 143.296C713.042 144.983 715.369 147.353 716.988 150.404C718.607 153.438 719.417 156.966 719.417 160.989C719.417 165.012 718.607 168.549 716.988 171.6C715.369 174.634 713.042 177.003 710.008 178.708C706.974 180.395 703.326 181.239 699.065 181.239ZM699.167 170.807C700.36 170.807 701.391 170.407 702.261 169.605C703.13 168.804 703.803 167.662 704.28 166.179C704.758 164.696 704.996 162.932 704.996 160.887C704.996 158.824 704.758 157.06 704.28 155.594C703.803 154.111 703.13 152.969 702.261 152.168C701.391 151.367 700.36 150.966 699.167 150.966C697.905 150.966 696.823 151.367 695.92 152.168C695.016 152.969 694.326 154.111 693.849 155.594C693.371 157.06 693.133 158.824 693.133 160.887C693.133 162.932 693.371 164.696 693.849 166.179C694.326 167.662 695.016 168.804 695.92 169.605C696.823 170.407 697.905 170.807 699.167 170.807ZM725.144 180.523V141.25H738.542V148.716H738.951C739.769 146.262 741.167 144.318 743.144 142.887C745.121 141.455 747.474 140.739 750.201 140.739C752.962 140.739 755.34 141.472 757.334 142.938C759.329 144.387 760.53 146.313 760.94 148.716H761.349C762.013 146.313 763.428 144.387 765.593 142.938C767.758 141.472 770.298 140.739 773.212 140.739C776.979 140.739 780.03 141.949 782.366 144.37C784.718 146.79 785.894 150.012 785.894 154.034V180.523H771.78V157.614C771.78 155.892 771.346 154.546 770.477 153.574C769.607 152.586 768.44 152.091 766.974 152.091C765.525 152.091 764.374 152.586 763.522 153.574C762.687 154.546 762.269 155.892 762.269 157.614V180.523H748.769V157.614C748.769 155.892 748.334 154.546 747.465 153.574C746.596 152.586 745.428 152.091 743.962 152.091C742.991 152.091 742.155 152.313 741.457 152.756C740.758 153.199 740.212 153.838 739.82 154.674C739.445 155.492 739.258 156.472 739.258 157.614V180.523H725.144Z" fill="url(#paint2_linear_52_335)"/>
<path d="M306.247 222.196V219.545H320.173V222.196H314.778V237H311.641V222.196H306.247ZM325.806 229.33V237H322.721V219.545H325.738V226.134H325.891C326.198 225.395 326.673 224.812 327.315 224.386C327.963 223.955 328.786 223.739 329.786 223.739C330.695 223.739 331.488 223.929 332.164 224.31C332.84 224.69 333.363 225.247 333.732 225.98C334.107 226.713 334.295 227.608 334.295 228.665V237H331.21V229.142C331.21 228.261 330.982 227.577 330.528 227.088C330.079 226.594 329.448 226.347 328.636 226.347C328.09 226.347 327.602 226.466 327.17 226.705C326.744 226.937 326.409 227.276 326.164 227.719C325.926 228.162 325.806 228.699 325.806 229.33ZM343.235 237.256C341.923 237.256 340.789 236.983 339.835 236.438C338.886 235.886 338.156 235.108 337.644 234.102C337.133 233.091 336.877 231.901 336.877 230.531C336.877 229.185 337.133 228.003 337.644 226.986C338.161 225.963 338.883 225.168 339.809 224.599C340.735 224.026 341.823 223.739 343.073 223.739C343.88 223.739 344.641 223.869 345.357 224.131C346.079 224.386 346.715 224.784 347.266 225.324C347.823 225.864 348.261 226.551 348.579 227.386C348.897 228.216 349.056 229.205 349.056 230.352V231.298H338.326V229.219H346.099C346.093 228.628 345.965 228.102 345.715 227.642C345.465 227.176 345.116 226.81 344.667 226.543C344.224 226.276 343.707 226.142 343.116 226.142C342.485 226.142 341.931 226.295 341.454 226.602C340.977 226.903 340.605 227.301 340.338 227.795C340.076 228.284 339.943 228.821 339.937 229.406V231.222C339.937 231.983 340.076 232.636 340.355 233.182C340.633 233.722 341.022 234.136 341.522 234.426C342.022 234.71 342.607 234.852 343.278 234.852C343.727 234.852 344.133 234.79 344.497 234.665C344.86 234.534 345.176 234.344 345.443 234.094C345.71 233.844 345.911 233.534 346.048 233.165L348.928 233.489C348.747 234.25 348.4 234.915 347.889 235.483C347.383 236.045 346.735 236.483 345.945 236.795C345.156 237.102 344.252 237.256 343.235 237.256ZM363.33 237.256C362.051 237.256 360.943 236.974 360.006 236.412C359.068 235.849 358.341 235.062 357.824 234.051C357.313 233.04 357.057 231.858 357.057 230.506C357.057 229.153 357.313 227.969 357.824 226.952C358.341 225.935 359.068 225.145 360.006 224.582C360.943 224.02 362.051 223.739 363.33 223.739C364.608 223.739 365.716 224.02 366.654 224.582C367.591 225.145 368.315 225.935 368.827 226.952C369.344 227.969 369.602 229.153 369.602 230.506C369.602 231.858 369.344 233.04 368.827 234.051C368.315 235.062 367.591 235.849 366.654 236.412C365.716 236.974 364.608 237.256 363.33 237.256ZM363.347 234.784C364.04 234.784 364.619 234.594 365.085 234.213C365.551 233.827 365.898 233.31 366.125 232.662C366.358 232.014 366.475 231.293 366.475 230.497C366.475 229.696 366.358 228.972 366.125 228.324C365.898 227.67 365.551 227.151 365.085 226.764C364.619 226.378 364.04 226.185 363.347 226.185C362.637 226.185 362.046 226.378 361.574 226.764C361.108 227.151 360.759 227.67 360.526 228.324C360.298 228.972 360.185 229.696 360.185 230.497C360.185 231.293 360.298 232.014 360.526 232.662C360.759 233.31 361.108 233.827 361.574 234.213C362.046 234.594 362.637 234.784 363.347 234.784ZM378.852 223.909V226.295H371.113V223.909H378.852ZM373.048 237V222.673C373.048 221.793 373.23 221.06 373.593 220.474C373.963 219.889 374.457 219.452 375.076 219.162C375.695 218.872 376.383 218.727 377.139 218.727C377.673 218.727 378.147 218.77 378.562 218.855C378.977 218.94 379.284 219.017 379.482 219.085L378.869 221.472C378.738 221.432 378.573 221.392 378.374 221.352C378.176 221.307 377.954 221.284 377.71 221.284C377.136 221.284 376.73 221.423 376.491 221.702C376.258 221.974 376.141 222.366 376.141 222.878V237H373.048ZM387.899 223.909V226.295H380.16V223.909H387.899ZM382.095 237V222.673C382.095 221.793 382.276 221.06 382.64 220.474C383.009 219.889 383.504 219.452 384.123 219.162C384.742 218.872 385.43 218.727 386.186 218.727C386.72 218.727 387.194 218.77 387.609 218.855C388.024 218.94 388.33 219.017 388.529 219.085L387.916 221.472C387.785 221.432 387.62 221.392 387.421 221.352C387.222 221.307 387.001 221.284 386.757 221.284C386.183 221.284 385.776 221.423 385.538 221.702C385.305 221.974 385.188 222.366 385.188 222.878V237H382.095ZM390.315 237V223.909H393.4V237H390.315ZM391.866 222.051C391.377 222.051 390.957 221.889 390.605 221.565C390.252 221.236 390.076 220.841 390.076 220.381C390.076 219.915 390.252 219.52 390.605 219.196C390.957 218.866 391.377 218.702 391.866 218.702C392.36 218.702 392.781 218.866 393.127 219.196C393.48 219.52 393.656 219.915 393.656 220.381C393.656 220.841 393.48 221.236 393.127 221.565C392.781 221.889 392.36 222.051 391.866 222.051ZM402.283 237.256C400.976 237.256 399.854 236.969 398.916 236.395C397.985 235.821 397.266 235.028 396.76 234.017C396.26 233 396.01 231.83 396.01 230.506C396.01 229.176 396.266 228.003 396.777 226.986C397.289 225.963 398.01 225.168 398.942 224.599C399.879 224.026 400.987 223.739 402.266 223.739C403.328 223.739 404.269 223.935 405.087 224.327C405.911 224.713 406.567 225.261 407.056 225.972C407.544 226.676 407.823 227.5 407.891 228.443H404.942C404.823 227.812 404.539 227.287 404.09 226.866C403.646 226.44 403.053 226.227 402.308 226.227C401.678 226.227 401.124 226.398 400.646 226.739C400.169 227.074 399.797 227.557 399.53 228.188C399.269 228.818 399.138 229.574 399.138 230.455C399.138 231.347 399.269 232.114 399.53 232.756C399.791 233.392 400.158 233.884 400.629 234.23C401.107 234.571 401.666 234.741 402.308 234.741C402.763 234.741 403.169 234.656 403.527 234.486C403.891 234.31 404.195 234.057 404.439 233.727C404.683 233.398 404.851 232.997 404.942 232.526H407.891C407.817 233.452 407.544 234.273 407.073 234.989C406.601 235.699 405.959 236.256 405.146 236.659C404.334 237.057 403.379 237.256 402.283 237.256ZM410.424 237V223.909H413.509V237H410.424ZM411.975 222.051C411.487 222.051 411.066 221.889 410.714 221.565C410.362 221.236 410.186 220.841 410.186 220.381C410.186 219.915 410.362 219.52 410.714 219.196C411.066 218.866 411.487 218.702 411.975 218.702C412.47 218.702 412.89 218.866 413.237 219.196C413.589 219.52 413.765 219.915 413.765 220.381C413.765 220.841 413.589 221.236 413.237 221.565C412.89 221.889 412.47 222.051 411.975 222.051ZM420.449 237.264C419.619 237.264 418.872 237.116 418.208 236.821C417.548 236.52 417.026 236.077 416.639 235.491C416.259 234.906 416.068 234.185 416.068 233.327C416.068 232.588 416.205 231.977 416.477 231.494C416.75 231.011 417.122 230.625 417.594 230.335C418.065 230.045 418.597 229.827 419.188 229.679C419.784 229.526 420.401 229.415 421.037 229.347C421.804 229.267 422.426 229.196 422.904 229.134C423.381 229.065 423.727 228.963 423.943 228.827C424.165 228.685 424.276 228.466 424.276 228.17V228.119C424.276 227.477 424.085 226.98 423.705 226.628C423.324 226.276 422.776 226.099 422.06 226.099C421.304 226.099 420.705 226.264 420.262 226.594C419.824 226.923 419.529 227.312 419.375 227.761L416.494 227.352C416.722 226.557 417.097 225.892 417.619 225.358C418.142 224.818 418.781 224.415 419.537 224.148C420.293 223.875 421.128 223.739 422.043 223.739C422.673 223.739 423.301 223.812 423.926 223.96C424.551 224.108 425.122 224.352 425.639 224.693C426.156 225.028 426.571 225.486 426.884 226.065C427.202 226.645 427.361 227.369 427.361 228.239V237H424.395V235.202H424.293C424.105 235.565 423.841 235.906 423.5 236.224C423.165 236.537 422.742 236.79 422.23 236.983C421.725 237.17 421.131 237.264 420.449 237.264ZM421.25 234.997C421.869 234.997 422.406 234.875 422.861 234.631C423.315 234.381 423.665 234.051 423.909 233.642C424.159 233.233 424.284 232.787 424.284 232.304V230.761C424.188 230.841 424.023 230.915 423.79 230.983C423.563 231.051 423.307 231.111 423.023 231.162C422.739 231.213 422.458 231.259 422.179 231.298C421.901 231.338 421.659 231.372 421.455 231.401C420.994 231.463 420.583 231.565 420.219 231.707C419.855 231.849 419.568 232.048 419.358 232.304C419.148 232.554 419.043 232.878 419.043 233.276C419.043 233.844 419.25 234.273 419.665 234.562C420.08 234.852 420.608 234.997 421.25 234.997ZM433.548 219.545V237H430.463V219.545H433.548ZM442.811 237V219.545H449.356C450.697 219.545 451.822 219.778 452.731 220.244C453.646 220.71 454.336 221.364 454.802 222.205C455.274 223.04 455.509 224.014 455.509 225.128C455.509 226.247 455.271 227.219 454.793 228.043C454.322 228.861 453.626 229.494 452.705 229.943C451.785 230.386 450.654 230.608 449.313 230.608H444.651V227.983H448.887C449.671 227.983 450.313 227.875 450.813 227.659C451.313 227.437 451.683 227.116 451.921 226.696C452.166 226.27 452.288 225.747 452.288 225.128C452.288 224.509 452.166 223.98 451.921 223.543C451.677 223.099 451.305 222.764 450.805 222.537C450.305 222.304 449.66 222.188 448.87 222.188H445.972V237H442.811ZM451.828 229.091L456.149 237H452.62L448.376 229.091H451.828ZM466.627 231.494V223.909H469.713V237H466.721V234.673H466.585C466.289 235.406 465.803 236.006 465.127 236.472C464.457 236.937 463.63 237.17 462.647 237.17C461.789 237.17 461.031 236.98 460.372 236.599C459.718 236.213 459.207 235.653 458.838 234.92C458.468 234.182 458.284 233.29 458.284 232.244V223.909H461.369V231.767C461.369 232.597 461.596 233.256 462.051 233.744C462.505 234.233 463.102 234.477 463.84 234.477C464.295 234.477 464.735 234.366 465.161 234.145C465.588 233.923 465.937 233.594 466.21 233.156C466.488 232.713 466.627 232.159 466.627 231.494ZM483.232 227.369L480.419 227.676C480.34 227.392 480.2 227.125 480.002 226.875C479.808 226.625 479.547 226.423 479.217 226.27C478.888 226.116 478.485 226.04 478.007 226.04C477.365 226.04 476.825 226.179 476.388 226.457C475.956 226.736 475.743 227.097 475.749 227.54C475.743 227.92 475.882 228.23 476.166 228.469C476.456 228.707 476.933 228.903 477.598 229.057L479.831 229.534C481.07 229.801 481.99 230.224 482.592 230.804C483.2 231.384 483.507 232.142 483.513 233.08C483.507 233.903 483.266 234.631 482.789 235.261C482.317 235.886 481.661 236.375 480.82 236.727C479.979 237.08 479.013 237.256 477.922 237.256C476.32 237.256 475.03 236.92 474.053 236.25C473.075 235.574 472.493 234.634 472.306 233.429L475.314 233.139C475.45 233.73 475.74 234.176 476.183 234.477C476.627 234.778 477.203 234.929 477.914 234.929C478.646 234.929 479.235 234.778 479.678 234.477C480.127 234.176 480.351 233.804 480.351 233.361C480.351 232.986 480.206 232.676 479.916 232.432C479.632 232.187 479.189 232 478.587 231.869L476.354 231.401C475.098 231.139 474.169 230.699 473.567 230.08C472.965 229.455 472.666 228.665 472.672 227.71C472.666 226.903 472.885 226.205 473.328 225.614C473.777 225.017 474.399 224.557 475.195 224.233C475.996 223.903 476.919 223.739 477.965 223.739C479.499 223.739 480.706 224.065 481.587 224.719C482.473 225.372 483.021 226.256 483.232 227.369ZM492.594 223.909V226.295H485.068V223.909H492.594ZM486.926 220.773H490.012V233.062C490.012 233.477 490.074 233.795 490.199 234.017C490.33 234.233 490.5 234.381 490.71 234.46C490.921 234.54 491.154 234.58 491.409 234.58C491.602 234.58 491.779 234.565 491.938 234.537C492.102 234.509 492.227 234.483 492.313 234.46L492.833 236.872C492.668 236.929 492.432 236.991 492.125 237.06C491.824 237.128 491.455 237.168 491.017 237.179C490.244 237.202 489.548 237.085 488.929 236.83C488.31 236.568 487.818 236.165 487.455 235.619C487.097 235.074 486.921 234.392 486.926 233.574V220.773ZM507.664 223.909V226.295H500.139V223.909H507.664ZM501.997 220.773H505.082V233.062C505.082 233.477 505.144 233.795 505.269 234.017C505.4 234.233 505.57 234.381 505.781 234.46C505.991 234.54 506.224 234.58 506.48 234.58C506.673 234.58 506.849 234.565 507.008 234.537C507.173 234.509 507.298 234.483 507.383 234.46L507.903 236.872C507.738 236.929 507.502 236.991 507.195 237.06C506.894 237.128 506.525 237.168 506.088 237.179C505.315 237.202 504.619 237.085 503.999 236.83C503.38 236.568 502.889 236.165 502.525 235.619C502.167 235.074 501.991 234.392 501.997 233.574V220.773ZM510.244 237V223.909H513.236V226.091H513.372C513.611 225.335 514.02 224.753 514.6 224.344C515.185 223.929 515.852 223.722 516.602 223.722C516.773 223.722 516.963 223.73 517.173 223.747C517.389 223.759 517.568 223.778 517.71 223.807V226.645C517.58 226.599 517.372 226.56 517.088 226.526C516.81 226.486 516.54 226.466 516.279 226.466C515.716 226.466 515.21 226.588 514.762 226.832C514.318 227.071 513.969 227.403 513.713 227.83C513.458 228.256 513.33 228.747 513.33 229.304V237H510.244ZM523.293 237.264C522.463 237.264 521.716 237.116 521.051 236.821C520.392 236.52 519.869 236.077 519.483 235.491C519.102 234.906 518.912 234.185 518.912 233.327C518.912 232.588 519.048 231.977 519.321 231.494C519.594 231.011 519.966 230.625 520.438 230.335C520.909 230.045 521.44 229.827 522.031 229.679C522.628 229.526 523.244 229.415 523.881 229.347C524.648 229.267 525.27 229.196 525.747 229.134C526.225 229.065 526.571 228.963 526.787 228.827C527.009 228.685 527.119 228.466 527.119 228.17V228.119C527.119 227.477 526.929 226.98 526.548 226.628C526.168 226.276 525.619 226.099 524.904 226.099C524.148 226.099 523.548 226.264 523.105 226.594C522.668 226.923 522.372 227.312 522.219 227.761L519.338 227.352C519.565 226.557 519.94 225.892 520.463 225.358C520.986 224.818 521.625 224.415 522.381 224.148C523.137 223.875 523.972 223.739 524.887 223.739C525.517 223.739 526.145 223.812 526.77 223.96C527.395 224.108 527.966 224.352 528.483 224.693C529 225.028 529.415 225.486 529.727 226.065C530.046 226.645 530.205 227.369 530.205 228.239V237H527.239V235.202H527.137C526.949 235.565 526.685 235.906 526.344 236.224C526.009 236.537 525.585 236.79 525.074 236.983C524.568 237.17 523.975 237.264 523.293 237.264ZM524.094 234.997C524.713 234.997 525.25 234.875 525.705 234.631C526.159 234.381 526.509 234.051 526.753 233.642C527.003 233.233 527.128 232.787 527.128 232.304V230.761C527.031 230.841 526.867 230.915 526.634 230.983C526.406 231.051 526.151 231.111 525.867 231.162C525.583 231.213 525.301 231.259 525.023 231.298C524.744 231.338 524.503 231.372 524.298 231.401C523.838 231.463 523.426 231.565 523.063 231.707C522.699 231.849 522.412 232.048 522.202 232.304C521.992 232.554 521.887 232.878 521.887 233.276C521.887 233.844 522.094 234.273 522.509 234.562C522.923 234.852 523.452 234.997 524.094 234.997ZM539.017 237.256C537.71 237.256 536.588 236.969 535.651 236.395C534.719 235.821 534 235.028 533.494 234.017C532.994 233 532.744 231.83 532.744 230.506C532.744 229.176 533 228.003 533.512 226.986C534.023 225.963 534.744 225.168 535.676 224.599C536.614 224.026 537.722 223.739 539 223.739C540.063 223.739 541.003 223.935 541.821 224.327C542.645 224.713 543.301 225.261 543.79 225.972C544.279 226.676 544.557 227.5 544.625 228.443H541.676C541.557 227.812 541.273 227.287 540.824 226.866C540.381 226.44 539.787 226.227 539.043 226.227C538.412 226.227 537.858 226.398 537.381 226.739C536.904 227.074 536.531 227.557 536.264 228.188C536.003 228.818 535.872 229.574 535.872 230.455C535.872 231.347 536.003 232.114 536.264 232.756C536.526 233.392 536.892 233.884 537.364 234.23C537.841 234.571 538.401 234.741 539.043 234.741C539.497 234.741 539.904 234.656 540.262 234.486C540.625 234.31 540.929 234.057 541.173 233.727C541.418 233.398 541.585 232.997 541.676 232.526H544.625C544.551 233.452 544.279 234.273 543.807 234.989C543.335 235.699 542.693 236.256 541.881 236.659C541.068 237.057 540.114 237.256 539.017 237.256ZM547.159 237V223.909H550.244V237H547.159ZM548.71 222.051C548.221 222.051 547.801 221.889 547.448 221.565C547.096 221.236 546.92 220.841 546.92 220.381C546.92 219.915 547.096 219.52 547.448 219.196C547.801 218.866 548.221 218.702 548.71 218.702C549.204 218.702 549.624 218.866 549.971 219.196C550.323 219.52 550.499 219.915 550.499 220.381C550.499 220.841 550.323 221.236 549.971 221.565C549.624 221.889 549.204 222.051 548.71 222.051ZM556.502 229.33V237H553.416V223.909H556.365V226.134H556.519C556.82 225.401 557.3 224.818 557.959 224.386C558.624 223.955 559.445 223.739 560.422 223.739C561.325 223.739 562.112 223.932 562.783 224.318C563.459 224.705 563.982 225.264 564.351 225.997C564.726 226.73 564.911 227.619 564.905 228.665V237H561.82V229.142C561.82 228.267 561.592 227.582 561.138 227.088C560.689 226.594 560.067 226.347 559.271 226.347C558.732 226.347 558.252 226.466 557.831 226.705C557.416 226.937 557.09 227.276 556.851 227.719C556.618 228.162 556.502 228.699 556.502 229.33ZM573.735 242.182C572.627 242.182 571.675 242.031 570.879 241.73C570.084 241.435 569.445 241.037 568.962 240.537C568.479 240.037 568.144 239.483 567.956 238.875L570.735 238.202C570.86 238.457 571.041 238.71 571.28 238.96C571.519 239.216 571.84 239.426 572.243 239.591C572.652 239.761 573.166 239.847 573.786 239.847C574.661 239.847 575.385 239.634 575.959 239.207C576.533 238.787 576.82 238.094 576.82 237.128V234.648H576.666C576.507 234.966 576.274 235.293 575.967 235.628C575.666 235.963 575.266 236.244 574.766 236.472C574.271 236.699 573.649 236.812 572.899 236.812C571.894 236.812 570.982 236.577 570.164 236.105C569.351 235.628 568.703 234.918 568.22 233.974C567.743 233.026 567.504 231.838 567.504 230.412C567.504 228.974 567.743 227.761 568.22 226.773C568.703 225.778 569.354 225.026 570.172 224.514C570.99 223.997 571.902 223.739 572.908 223.739C573.675 223.739 574.306 223.869 574.8 224.131C575.3 224.386 575.698 224.696 575.993 225.06C576.289 225.418 576.513 225.756 576.666 226.074H576.837V223.909H579.879V237.213C579.879 238.332 579.612 239.259 579.078 239.991C578.544 240.724 577.814 241.273 576.888 241.636C575.962 242 574.911 242.182 573.735 242.182ZM573.76 234.392C574.414 234.392 574.97 234.233 575.431 233.915C575.891 233.597 576.24 233.139 576.479 232.543C576.717 231.946 576.837 231.23 576.837 230.395C576.837 229.571 576.717 228.849 576.479 228.23C576.246 227.611 575.899 227.131 575.439 226.79C574.985 226.443 574.425 226.27 573.76 226.27C573.073 226.27 572.499 226.449 572.039 226.807C571.578 227.165 571.232 227.656 570.999 228.281C570.766 228.901 570.649 229.605 570.649 230.395C570.649 231.196 570.766 231.898 570.999 232.5C571.237 233.097 571.587 233.562 572.047 233.898C572.513 234.227 573.084 234.392 573.76 234.392ZM592.08 219.545V237H588.994V219.545H592.08ZM599.019 237.264C598.19 237.264 597.443 237.116 596.778 236.821C596.119 236.52 595.596 236.077 595.21 235.491C594.829 234.906 594.639 234.185 594.639 233.327C594.639 232.588 594.775 231.977 595.048 231.494C595.32 231.011 595.693 230.625 596.164 230.335C596.636 230.045 597.167 229.827 597.758 229.679C598.355 229.526 598.971 229.415 599.607 229.347C600.374 229.267 600.997 229.196 601.474 229.134C601.951 229.065 602.298 228.963 602.514 228.827C602.735 228.685 602.846 228.466 602.846 228.17V228.119C602.846 227.477 602.656 226.98 602.275 226.628C601.894 226.276 601.346 226.099 600.63 226.099C599.874 226.099 599.275 226.264 598.832 226.594C598.394 226.923 598.099 227.312 597.945 227.761L595.065 227.352C595.292 226.557 595.667 225.892 596.19 225.358C596.713 224.818 597.352 224.415 598.107 224.148C598.863 223.875 599.698 223.739 600.613 223.739C601.244 223.739 601.872 223.812 602.497 223.96C603.122 224.108 603.693 224.352 604.21 224.693C604.727 225.028 605.141 225.486 605.454 226.065C605.772 226.645 605.931 227.369 605.931 228.239V237H602.965V235.202H602.863C602.676 235.565 602.411 235.906 602.07 236.224C601.735 236.537 601.312 236.79 600.801 236.983C600.295 237.17 599.701 237.264 599.019 237.264ZM599.82 234.997C600.44 234.997 600.977 234.875 601.431 234.631C601.886 234.381 602.235 234.051 602.48 233.642C602.73 233.233 602.855 232.787 602.855 232.304V230.761C602.758 230.841 602.593 230.915 602.36 230.983C602.133 231.051 601.877 231.111 601.593 231.162C601.309 231.213 601.028 231.259 600.749 231.298C600.471 231.338 600.23 231.372 600.025 231.401C599.565 231.463 599.153 231.565 598.789 231.707C598.426 231.849 598.139 232.048 597.928 232.304C597.718 232.554 597.613 232.878 597.613 233.276C597.613 233.844 597.82 234.273 598.235 234.562C598.65 234.852 599.178 234.997 599.82 234.997ZM610.482 241.909C610.062 241.909 609.673 241.875 609.315 241.807C608.963 241.744 608.681 241.67 608.471 241.585L609.187 239.182C609.636 239.313 610.036 239.375 610.389 239.369C610.741 239.364 611.051 239.253 611.318 239.037C611.59 238.827 611.82 238.474 612.008 237.98L612.272 237.273L607.525 223.909H610.798L613.815 233.795H613.951L616.977 223.909H620.258L615.016 238.585C614.772 239.278 614.448 239.872 614.045 240.366C613.641 240.866 613.147 241.247 612.562 241.509C611.982 241.776 611.289 241.909 610.482 241.909ZM627.743 237.256C626.431 237.256 625.297 236.983 624.342 236.438C623.394 235.886 622.664 235.108 622.152 234.102C621.641 233.091 621.385 231.901 621.385 230.531C621.385 229.185 621.641 228.003 622.152 226.986C622.669 225.963 623.391 225.168 624.317 224.599C625.243 224.026 626.331 223.739 627.581 223.739C628.388 223.739 629.149 223.869 629.865 224.131C630.587 224.386 631.223 224.784 631.774 225.324C632.331 225.864 632.769 226.551 633.087 227.386C633.405 228.216 633.564 229.205 633.564 230.352V231.298H622.834V229.219H630.607C630.601 228.628 630.473 228.102 630.223 227.642C629.973 227.176 629.624 226.81 629.175 226.543C628.732 226.276 628.215 226.142 627.624 226.142C626.993 226.142 626.439 226.295 625.962 226.602C625.485 226.903 625.112 227.301 624.845 227.795C624.584 228.284 624.45 228.821 624.445 229.406V231.222C624.445 231.983 624.584 232.636 624.862 233.182C625.141 233.722 625.53 234.136 626.03 234.426C626.53 234.71 627.115 234.852 627.786 234.852C628.235 234.852 628.641 234.79 629.004 234.665C629.368 234.534 629.683 234.344 629.95 234.094C630.217 233.844 630.419 233.534 630.556 233.165L633.436 233.489C633.254 234.25 632.908 234.915 632.396 235.483C631.891 236.045 631.243 236.483 630.453 236.795C629.664 237.102 628.76 237.256 627.743 237.256ZM636.174 237V223.909H639.166V226.091H639.302C639.541 225.335 639.95 224.753 640.529 224.344C641.114 223.929 641.782 223.722 642.532 223.722C642.703 223.722 642.893 223.73 643.103 223.747C643.319 223.759 643.498 223.778 643.64 223.807V226.645C643.509 226.599 643.302 226.56 643.018 226.526C642.739 226.486 642.47 226.466 642.208 226.466C641.646 226.466 641.14 226.588 640.691 226.832C640.248 227.071 639.899 227.403 639.643 227.83C639.387 228.256 639.259 228.747 639.259 229.304V237H636.174ZM658.274 223.909V226.295H650.535V223.909H658.274ZM652.47 237V222.673C652.47 221.793 652.651 221.06 653.015 220.474C653.384 219.889 653.879 219.452 654.498 219.162C655.117 218.872 655.805 218.727 656.561 218.727C657.095 218.727 657.569 218.77 657.984 218.855C658.399 218.94 658.705 219.017 658.904 219.085L658.291 221.472C658.16 221.432 657.995 221.392 657.796 221.352C657.597 221.307 657.376 221.284 657.132 221.284C656.558 221.284 656.151 221.423 655.913 221.702C655.68 221.974 655.563 222.366 655.563 222.878V237H652.47ZM665.908 237.256C664.629 237.256 663.521 236.974 662.584 236.412C661.646 235.849 660.919 235.062 660.402 234.051C659.891 233.04 659.635 231.858 659.635 230.506C659.635 229.153 659.891 227.969 660.402 226.952C660.919 225.935 661.646 225.145 662.584 224.582C663.521 224.02 664.629 223.739 665.908 223.739C667.186 223.739 668.294 224.02 669.232 224.582C670.169 225.145 670.894 225.935 671.405 226.952C671.922 227.969 672.181 229.153 672.181 230.506C672.181 231.858 671.922 233.04 671.405 234.051C670.894 235.062 670.169 235.849 669.232 236.412C668.294 236.974 667.186 237.256 665.908 237.256ZM665.925 234.784C666.618 234.784 667.198 234.594 667.664 234.213C668.129 233.827 668.476 233.31 668.703 232.662C668.936 232.014 669.053 231.293 669.053 230.497C669.053 229.696 668.936 228.972 668.703 228.324C668.476 227.67 668.129 227.151 667.664 226.764C667.198 226.378 666.618 226.185 665.925 226.185C665.215 226.185 664.624 226.378 664.152 226.764C663.686 227.151 663.337 227.67 663.104 228.324C662.877 228.972 662.763 229.696 662.763 230.497C662.763 231.293 662.877 232.014 663.104 232.662C663.337 233.31 663.686 233.827 664.152 234.213C664.624 234.594 665.215 234.784 665.925 234.784ZM674.799 237V223.909H677.791V226.091H677.927C678.166 225.335 678.575 224.753 679.154 224.344C679.739 223.929 680.407 223.722 681.157 223.722C681.328 223.722 681.518 223.73 681.728 223.747C681.944 223.759 682.123 223.778 682.265 223.807V226.645C682.134 226.599 681.927 226.56 681.643 226.526C681.364 226.486 681.095 226.466 680.833 226.466C680.271 226.466 679.765 226.588 679.316 226.832C678.873 227.071 678.524 227.403 678.268 227.83C678.012 228.256 677.884 228.747 677.884 229.304V237H674.799ZM692.646 237H689.271L695.416 219.545H699.319L705.472 237H702.097L697.436 223.125H697.299L692.646 237ZM692.757 230.156H701.961V232.696H692.757V230.156ZM710.158 223.909L712.8 228.741L715.485 223.909H718.749L714.803 230.455L718.817 237H715.57L712.8 232.287L710.056 237H706.783L710.771 230.455L706.885 223.909H710.158ZM721.135 237V223.909H724.22V237H721.135ZM722.686 222.051C722.198 222.051 721.777 221.889 721.425 221.565C721.073 221.236 720.896 220.841 720.896 220.381C720.896 219.915 721.073 219.52 721.425 219.196C721.777 218.866 722.198 218.702 722.686 218.702C723.181 218.702 723.601 218.866 723.948 219.196C724.3 219.52 724.476 219.915 724.476 220.381C724.476 220.841 724.3 221.236 723.948 221.565C723.601 221.889 723.181 222.051 722.686 222.051ZM733.103 237.256C731.825 237.256 730.717 236.974 729.779 236.412C728.842 235.849 728.114 235.062 727.597 234.051C727.086 233.04 726.83 231.858 726.83 230.506C726.83 229.153 727.086 227.969 727.597 226.952C728.114 225.935 728.842 225.145 729.779 224.582C730.717 224.02 731.825 223.739 733.103 223.739C734.382 223.739 735.489 224.02 736.427 224.582C737.364 225.145 738.089 225.935 738.6 226.952C739.117 227.969 739.376 229.153 739.376 230.506C739.376 231.858 739.117 233.04 738.6 234.051C738.089 235.062 737.364 235.849 736.427 236.412C735.489 236.974 734.382 237.256 733.103 237.256ZM733.12 234.784C733.813 234.784 734.393 234.594 734.859 234.213C735.325 233.827 735.671 233.31 735.899 232.662C736.132 232.014 736.248 231.293 736.248 230.497C736.248 229.696 736.132 228.972 735.899 228.324C735.671 227.67 735.325 227.151 734.859 226.764C734.393 226.378 733.813 226.185 733.12 226.185C732.41 226.185 731.819 226.378 731.347 226.764C730.882 227.151 730.532 227.67 730.299 228.324C730.072 228.972 729.958 229.696 729.958 230.497C729.958 231.293 730.072 232.014 730.299 232.662C730.532 233.31 730.882 233.827 731.347 234.213C731.819 234.594 732.41 234.784 733.12 234.784ZM741.994 237V223.909H744.943V226.134H745.097C745.369 225.384 745.821 224.798 746.452 224.378C747.083 223.952 747.835 223.739 748.71 223.739C749.597 223.739 750.344 223.955 750.952 224.386C751.565 224.812 751.997 225.395 752.247 226.134H752.384C752.673 225.406 753.162 224.827 753.85 224.395C754.543 223.957 755.364 223.739 756.313 223.739C757.517 223.739 758.5 224.119 759.262 224.881C760.023 225.642 760.404 226.753 760.404 228.213V237H757.31V228.69C757.31 227.878 757.094 227.284 756.662 226.909C756.23 226.528 755.702 226.338 755.077 226.338C754.333 226.338 753.75 226.571 753.33 227.037C752.915 227.497 752.708 228.097 752.708 228.835V237H749.682V228.562C749.682 227.886 749.477 227.347 749.068 226.943C748.665 226.54 748.137 226.338 747.483 226.338C747.04 226.338 746.637 226.452 746.273 226.679C745.909 226.901 745.619 227.216 745.404 227.625C745.188 228.028 745.08 228.5 745.08 229.04V237H741.994Z" fill="#ABB3BF"/>
</g>
<rect x="0.786865" y="0.5" width="1065.67" height="399" stroke="white" stroke-opacity="0.1"/>
<defs>
<radialGradient id="paint0_radial_52_335" cx="0" cy="0" r="1" gradientUnits="userSpaceOnUse" gradientTransform="translate(534.5 134.358) rotate(90) scale(343.561 585.061)">
<stop stop-color="#D9D9D9"/>
<stop offset="1" stop-color="#D9D9D9" stop-opacity="0"/>
</radialGradient>
<radialGradient id="paint1_radial_52_335" cx="0" cy="0" r="1" gradientUnits="userSpaceOnUse" gradientTransform="translate(534.5 195.949) rotate(90) scale(281.97 480.176)">
<stop stop-color="#0A3FFF"/>
<stop offset="1" stop-color="#B591F9" stop-opacity="0"/>
</radialGradient>
<linearGradient id="paint2_linear_52_335" x1="359.558" y1="117.976" x2="664.826" y2="141.027" gradientUnits="userSpaceOnUse">
<stop stop-color="#BE99FF"/>
<stop offset="0.583932" stop-color="#8CBDFF"/>
<stop offset="1" stop-color="#6D7CFF"/>
</linearGradient>
<clipPath id="clip0_52_335">
<rect x="0.286865" width="1066.67" height="400" fill="white"/>
</clipPath>
<clipPath id="clip1_52_335">
<rect width="1069" height="468" fill="white"/>
</clipPath>
</defs>
</svg>
